<svg width="21" height="22" viewBox="0 0 21 22" fill="none" xmlns="http://www.w3.org/2000/svg">
<path d="M3.54426 11C3.54426 11.4627 3.91932 11.8377 4.38197 11.8377L11.7167 11.8377C12.463 11.8377 12.8368 12.7401 12.3091 13.2678L9.65079 15.9261C9.32283 16.254 9.3241 16.7864 9.65322 17.1132C9.9807 17.4383 10.5098 17.4377 10.8361 17.1114L16.3552 11.5924C16.6823 11.2652 16.6823 10.7348 16.3552 10.4077L10.8367 4.88926C10.5104 4.56294 9.98136 4.56294 9.65504 4.88926C9.32894 5.21537 9.3287 5.74402 9.65451 6.07042L12.3121 8.73282C12.8391 9.26076 12.4652 10.1623 11.7193 10.1623L4.38197 10.1623C3.91932 10.1623 3.54426 10.5374 3.54426 11Z" fill="#832E88"/>
</svg>
