<svg width="48" height="48" viewBox="0 0 48 48" fill="none" xmlns="http://www.w3.org/2000/svg">
<g clip-path="url(#clip0_75_2002)">
<path d="M39 3C40.5913 3 42.1174 3.63214 43.2426 4.75736C44.3679 5.88258 45 7.4087 45 9V39C45 40.5913 44.3679 42.1174 43.2426 43.2426C42.1174 44.3679 40.5913 45 39 45H9C7.4087 45 5.88258 44.3679 4.75736 43.2426C3.63214 42.1174 3 40.5913 3 39V9C3 7.4087 3.63214 5.88258 4.75736 4.75736C5.88258 3.63214 7.4087 3 9 3H39ZM39 0H9C6.61518 0.00692547 4.33002 0.957361 2.64369 2.64369C0.957361 4.33002 0.00692547 6.61518 0 9L0 39C0.00692547 41.3848 0.957361 43.67 2.64369 45.3563C4.33002 47.0426 6.61518 47.9931 9 48H39C41.3848 47.9931 43.67 47.0426 45.3563 45.3563C47.0426 43.67 47.9931 41.3848 48 39V9C47.9931 6.61518 47.0426 4.33002 45.3563 2.64369C43.67 0.957361 41.3848 0.00692547 39 0Z" fill="#832E88"/>
<path d="M21.375 23.625C21.375 23.625 23.625 22.7888 23.625 19.875C23.625 16.9613 21.6975 15.75 19.125 15.75H10.5V32.25H19.125C19.125 32.25 24 32.25 24 27.375C24 27.375 24 23.625 21.375 23.625ZM14.25 18.75H19.125C19.125 18.75 20.25 18.75 20.25 20.25C20.25 21.945 19.5 22.125 18.75 22.125H14.25V18.75ZM18.75 29.25H14.25V25.125L18.9713 25.0988C18.9713 25.0988 20.625 25.125 20.625 27.375C20.625 29.25 19.4288 29.2312 18.75 29.25Z" fill="#832E88"/>
<path d="M31.7888 19.8301C25.53 19.8301 25.5338 26.0851 25.5338 26.0851C25.5338 26.0851 25.1888 32.2501 31.875 32.2501C31.875 32.2501 37.5 32.7713 37.5 28.1251H34.5C34.5 28.1251 34.59 29.7301 31.875 29.7301C31.875 29.7301 28.875 30.0263 28.875 27.0001H37.5C37.5 27.0001 38.3775 19.8301 31.7888 19.8301ZM34.5 24.7501H28.875C28.875 24.7501 29.34 22.2151 31.8525 22.2151C34.365 22.2151 34.5 24.7501 34.5 24.7501Z" fill="#832E88"/>
<path d="M35.25 16.5H28.125V18.75H35.25V16.5Z" fill="#832E88"/>
</g>
<defs>
<clipPath id="clip0_75_2002">
<rect width="48" height="48" fill="white"/>
</clipPath>
</defs>
</svg>
