<svg width="141" height="73" viewBox="0 0 141 73" fill="none" xmlns="http://www.w3.org/2000/svg">
<path d="M52.4688 52.4688H19.9039L11.948 8.72578C11.855 8.20193 11.5817 7.7271 11.1755 7.38342C10.7694 7.03974 10.2559 6.84885 9.72383 6.84375H4.5625" stroke="white" stroke-opacity="0.8" stroke-linecap="round" stroke-linejoin="round"/>
<path d="M22.8125 63.875C25.9622 63.875 28.5156 61.3216 28.5156 58.1719C28.5156 55.0221 25.9622 52.4688 22.8125 52.4688C19.6628 52.4688 17.1094 55.0221 17.1094 58.1719C17.1094 61.3216 19.6628 63.875 22.8125 63.875Z" stroke="white" stroke-opacity="0.8" stroke-linecap="round" stroke-linejoin="round"/>
<path d="M52.4688 63.875C55.6185 63.875 58.1719 61.3216 58.1719 58.1719C58.1719 55.0221 55.6185 52.4688 52.4688 52.4688C49.319 52.4688 46.7656 55.0221 46.7656 58.1719C46.7656 61.3216 49.319 63.875 52.4688 63.875Z" stroke="white" stroke-opacity="0.8" stroke-linecap="round" stroke-linejoin="round"/>
<path d="M17.8223 41.0625H53.6379C54.7043 41.0658 55.7377 40.693 56.5565 40.0098C57.3753 39.3266 57.9271 38.3767 58.1148 37.327L61.5938 18.25H13.6875" stroke="white" stroke-opacity="0.8" stroke-linecap="round" stroke-linejoin="round"/>
<path d="M139.497 20.8558C139.415 20.4109 139.241 19.9883 138.985 19.6153C138.729 19.2424 138.397 18.9274 138.012 18.6909L129.522 27.1807C129.126 27.5916 128.651 27.9184 128.126 28.1416C127.601 28.3648 127.036 28.4798 126.465 28.4798C125.895 28.4798 125.33 28.3648 124.805 28.1416C124.28 27.9184 123.805 27.5916 123.409 27.1807L120.183 24.2942C119.405 23.5007 118.969 22.4339 118.969 21.3227C118.969 20.2116 119.405 19.1448 120.183 18.3513L128.673 9.86142C128.488 9.42647 128.209 9.03752 127.857 8.7221C127.505 8.40668 127.088 8.17249 126.635 8.0361C123.673 7.44537 120.604 7.69824 117.779 8.7659C114.953 9.83356 112.484 11.6731 110.653 14.0752C108.821 16.4772 107.701 19.3452 107.42 22.3526C107.156 25.1698 107.639 28.0033 108.814 30.5699L86.0324 53.3512C84.3507 55.0329 84.3786 57.7679 86.0942 59.415L88.4747 61.7003C90.1351 63.2943 92.7633 63.2746 94.3997 61.656L117.443 38.8626C119.935 39.8919 122.65 40.2834 125.34 39.995C128.314 39.6761 131.142 38.5384 133.509 36.7084C135.876 34.8784 137.688 32.4278 138.746 29.6292C139.803 26.8305 140.063 23.7935 139.497 20.8558Z" stroke="white" stroke-opacity="0.8" stroke-linecap="round" stroke-linejoin="round"/>
</svg>
