<svg width="58" height="58" viewBox="0 0 58 58" fill="none" xmlns="http://www.w3.org/2000/svg">
<path d="M43.5919 33.1424C39.7809 33.1424 36.6916 30.053 36.6916 26.2421C36.6916 22.4312 39.7809 19.3418 43.5919 19.3418C47.4028 19.3418 50.4922 22.4312 50.4922 26.2421C50.4922 30.053 47.4028 33.1424 43.5919 33.1424Z" stroke="white" stroke-opacity="0.8" stroke-linecap="round" stroke-linejoin="round"/>
<path d="M33.5664 43.7925C34.5169 42.7878 35.6169 41.9277 36.8323 41.245C38.8963 40.0856 41.2239 39.4766 43.5912 39.4766C45.9586 39.4766 48.2862 40.0856 50.3502 41.245C51.243 41.7465 52.0734 42.3437 52.8281 43.0236" stroke="white" stroke-opacity="0.8" stroke-linecap="round" stroke-linejoin="round"/>
<path d="M21.2656 30.9297C16.5432 30.9297 12.7149 27.1013 12.7149 22.3789C12.7149 17.6564 16.5432 13.8281 21.2656 13.8281C25.9881 13.8281 29.8164 17.6564 29.8164 22.3789C29.8164 27.1013 25.9881 30.9297 21.2656 30.9297Z" stroke="white" stroke-opacity="0.8" stroke-linecap="round" stroke-linejoin="round"/>
<path d="M37.2852 55.3488C36.8587 50.2413 35.586 46.883 34.8883 45.7007C33.4028 43.175 31.315 41.0875 28.8256 39.639C26.3362 38.1905 23.5289 37.4297 20.6737 37.4297C17.8184 37.4297 15.0112 38.1905 12.5218 39.639C10.534 40.7956 8.80227 42.3597 7.42878 44.2289L6.55797 45.5324" stroke="white" stroke-opacity="0.8" stroke-linecap="round" stroke-linejoin="round"/>
<path d="M28.8577 56.7143C13.4726 56.7143 1.00056 44.2422 1.00056 28.8571C1.00056 13.4721 13.4726 1 28.8577 1C44.2428 1 56.7148 13.4721 56.7148 28.8571C56.7148 44.2422 44.2428 56.7143 28.8577 56.7143Z" stroke="white" stroke-opacity="0.8" stroke-linecap="round" stroke-linejoin="round"/>
</svg>
