<svg width="48" height="48" viewBox="0 0 48 48" fill="none" xmlns="http://www.w3.org/2000/svg">
<g clip-path="url(#clip0_75_2007)">
<path d="M39 3C40.5913 3 42.1174 3.63214 43.2426 4.75736C44.3679 5.88258 45 7.4087 45 9V39C45 40.5913 44.3679 42.1174 43.2426 43.2426C42.1174 44.3679 40.5913 45 39 45H9C7.4087 45 5.88258 44.3679 4.75736 43.2426C3.63214 42.1174 3 40.5913 3 39V9C3 7.4087 3.63214 5.88258 4.75736 4.75736C5.88258 3.63214 7.4087 3 9 3H39ZM39 0H9C6.61518 0.00692547 4.33002 0.957361 2.64369 2.64369C0.957361 4.33002 0.00692547 6.61518 0 9L0 39C0.00692547 41.3848 0.957361 43.67 2.64369 45.3563C4.33002 47.0426 6.61518 47.9931 9 48H39C41.3848 47.9931 43.67 47.0426 45.3563 45.3563C47.0426 43.67 47.9931 41.3848 48 39V9C47.9931 6.61518 47.0426 4.33002 45.3563 2.64369C43.67 0.957361 41.3848 0.00692547 39 0Z" fill="#832E88"/>
<path d="M34.5 12H13.5C13.1022 12 12.7206 12.158 12.4393 12.4393C12.158 12.7206 12 13.1022 12 13.5V34.5C12 34.8978 12.158 35.2794 12.4393 35.5607C12.7206 35.842 13.1022 36 13.5 36H34.5C34.8978 36 35.2794 35.842 35.5607 35.5607C35.842 35.2794 36 34.8978 36 34.5V13.5C36 13.1022 35.842 12.7206 35.5607 12.4393C35.2794 12.158 34.8978 12 34.5 12ZM19.5 32.25H15.75V21H19.5V32.25ZM17.625 19.5C17.18 19.5 16.745 19.368 16.375 19.1208C16.005 18.8736 15.7166 18.5222 15.5463 18.111C15.376 17.6999 15.3314 17.2475 15.4182 16.811C15.505 16.3746 15.7193 15.9737 16.034 15.659C16.3487 15.3443 16.7496 15.13 17.186 15.0432C17.6225 14.9564 18.0749 15.001 18.486 15.1713C18.8972 15.3416 19.2486 15.63 19.4958 16C19.743 16.37 19.875 16.805 19.875 17.25C19.875 17.8467 19.6379 18.419 19.216 18.841C18.794 19.2629 18.2217 19.5 17.625 19.5ZM32.25 32.25H28.5V24.75C28.5 24.1275 27.66 23.625 26.625 23.625C25.125 23.625 24.75 25.6275 24.75 26.25V32.25H21V21H24.75V23.625C24.75 21.75 26.43 21 28.5 21C29.4946 21 30.4484 21.3951 31.1516 22.0983C31.8549 22.8016 32.25 23.7554 32.25 24.75V32.25Z" fill="#832E88"/>
</g>
<defs>
<clipPath id="clip0_75_2007">
<rect width="48" height="48" fill="white"/>
</clipPath>
</defs>
</svg>
