<?xml version="1.0" encoding="utf-8"?>
<!-- Generator: Adobe Illustrator 27.9.0, SVG Export Plug-In . SVG Version: 6.00 Build 0)  -->
<svg version="1.1" id="Layer_1" xmlns="http://www.w3.org/2000/svg" xmlns:xlink="http://www.w3.org/1999/xlink" x="0px" y="0px"
	 viewBox="0 0 612.8 579.1" style="enable-background:new 0 0 612.8 579.1;" xml:space="preserve">
<style type="text/css">
	.st0{opacity:0.54;}
	.st1{fill:#45108A;}
	.st2{opacity:0.2;}
	.st3{fill:none;}
	.st4{fill:url(#SVGID_1_);}
	.st5{fill:url(#SVGID_00000121254547960679507790000015632959606623730837_);}
	.st6{fill:url(#SVGID_00000056408620144826130190000016485173119742719922_);}
	.st7{fill:url(#SVGID_00000098925140195045091800000013195283519406685593_);}
	.st8{fill:url(#SVGID_00000034055314332174230860000006601906322565884312_);}
	.st9{fill:#1F0D3D;}
	.st10{fill:#3D065F;}
	.st11{fill:url(#SVGID_00000057130747682561829510000018049191704629100163_);}
	.st12{fill:url(#SVGID_00000007416008799685849490000014221756957488945853_);}
	.st13{fill:url(#SVGID_00000091709193385366523720000002656848347387964595_);}
	.st14{fill:url(#SVGID_00000059275180050977012780000010479685601166147769_);}
	.st15{fill:url(#SVGID_00000029726884036749464820000015682593420005213573_);}
	.st16{fill:url(#SVGID_00000088117040579956407480000011176973167763426450_);}
	.st17{fill:url(#SVGID_00000173859162056010498090000013078280761462532511_);}
	.st18{opacity:0.17;fill:url(#SVGID_00000068652078985614179820000000604705136719580827_);enable-background:new    ;}
	.st19{opacity:0.17;fill:url(#SVGID_00000098912677887747112130000012673403658494004871_);enable-background:new    ;}
	.st20{fill:#A56EF4;}
	.st21{fill:url(#SVGID_00000012442396691128978260000012432962956773880454_);}
	.st22{fill:url(#SVGID_00000057111158056977549450000005721148617965556921_);}
	.st23{opacity:0.42;}
	.st24{fill:#7C1DC9;}
	.st25{fill:url(#SVGID_00000021819186087835456460000014940639994117004448_);}
	.st26{fill:url(#SVGID_00000134958291958667003790000010356445392366201009_);}
	.st27{fill:url(#SVGID_00000013888829977615251440000010758443347400697504_);}
	.st28{fill:url(#SVGID_00000013890627819232395340000008136730122077597108_);}
	.st29{fill:#E6E7E8;}
	.st30{fill:url(#SVGID_00000179629121857767852160000013678166139663317439_);}
	.st31{fill:url(#SVGID_00000163781235236536374920000012943745401093704100_);}
	.st32{fill:#B4299A;}
	.st33{opacity:0.4;fill:#B4299A;enable-background:new    ;}
	.st34{opacity:0.1;fill:#B4299A;enable-background:new    ;}
	.st35{fill:url(#SVGID_00000127018258870060880180000014108374666457013406_);}
	.st36{opacity:0.47;}
	.st37{fill:url(#SVGID_00000037691845186080701950000002676381868724802438_);}
	.st38{fill:url(#SVGID_00000071559473759823418340000011033882059997612425_);}
</style>
<g class="st0">
	<g id="Layer_1_00000168110122130296057890000013991241937713142158_">
		<path class="st1" d="M478.4,325.7c-0.3,0-0.5-0.1-0.7-0.4c-0.2-0.4-0.1-0.9,0.3-1.1l2.8-1.6c0.4-0.2,0.9-0.1,1.1,0.3
			s0.1,0.9-0.3,1.1l-2.8,1.6C478.7,325.6,478.6,325.7,478.4,325.7L478.4,325.7z M484,322.4c-0.3,0-0.5-0.1-0.7-0.4
			c-0.2-0.4-0.1-0.9,0.3-1.1l2.8-1.6c0.4-0.2,0.9-0.1,1.1,0.3s0.1,0.9-0.3,1.1l-2.8,1.6C484.2,322.4,484.1,322.4,484,322.4
			L484,322.4z M489.5,319.2c-0.3,0-0.5-0.1-0.7-0.4c-0.2-0.4-0.1-0.9,0.3-1.1l2.8-1.6c0.4-0.2,0.9-0.1,1.1,0.3s0.1,0.9-0.3,1.1
			l-2.8,1.6C489.8,319.1,489.6,319.2,489.5,319.2L489.5,319.2z M495,315.9c-0.3,0-0.5-0.1-0.7-0.4c-0.2-0.4-0.1-0.9,0.3-1.1l2.8-1.6
			c0.4-0.2,0.9-0.1,1.1,0.3s0.1,0.9-0.3,1.1l-2.8,1.6C495.3,315.9,495.1,315.9,495,315.9L495,315.9z M500.5,312.7
			c-0.3,0-0.5-0.1-0.7-0.4c-0.2-0.4-0.1-0.9,0.3-1.1l2.8-1.6c0.4-0.2,0.9-0.1,1.1,0.3s0.1,0.9-0.3,1.1l-2.8,1.6
			C500.8,312.6,500.7,312.7,500.5,312.7L500.5,312.7z M506,309.4c-0.3,0-0.5-0.1-0.7-0.4c-0.2-0.4-0.1-0.9,0.3-1.1l2.8-1.6
			c0.4-0.2,0.9-0.1,1.1,0.3s0.1,0.9-0.3,1.1l-2.8,1.6C506.3,309.4,506.2,309.4,506,309.4L506,309.4z M511.6,306.2
			c-0.3,0-0.5-0.1-0.7-0.4c-0.2-0.4-0.1-0.9,0.3-1.1l2.8-1.6c0.4-0.2,0.9-0.1,1.1,0.3s0.1,0.9-0.3,1.1l-2.8,1.6
			C511.8,306.1,511.7,306.2,511.6,306.2L511.6,306.2z M517.1,302.9c-0.3,0-0.5-0.1-0.7-0.4c-0.2-0.4-0.1-0.9,0.3-1.1l2.8-1.6
			c0.4-0.2,0.9-0.1,1.1,0.3s0.1,0.9-0.3,1.1l-2.8,1.6C517.4,302.9,517.2,302.9,517.1,302.9L517.1,302.9z M522.6,299.7
			c-0.3,0-0.5-0.1-0.7-0.4c-0.2-0.4-0.1-0.9,0.3-1.1l2.8-1.6c0.4-0.2,0.9-0.1,1.1,0.3s0.1,0.9-0.3,1.1l-2.8,1.6
			C522.9,299.6,522.7,299.7,522.6,299.7L522.6,299.7z M528.1,296.4c-0.3,0-0.5-0.1-0.7-0.4c-0.2-0.4-0.1-0.9,0.3-1.1l2.8-1.6
			c0.4-0.2,0.9-0.1,1.1,0.3s0.1,0.9-0.3,1.1l-2.8,1.6C528.4,296.4,528.3,296.4,528.1,296.4L528.1,296.4z M533.7,293.2
			c-0.3,0-0.5-0.1-0.7-0.4c-0.2-0.4-0.1-0.9,0.3-1.1l2.8-1.6c0.4-0.2,0.9-0.1,1.1,0.3s0.1,0.9-0.3,1.1l-2.8,1.6
			C533.9,293.1,533.8,293.2,533.7,293.2L533.7,293.2z M539.2,289.9c-0.3,0-0.5-0.1-0.7-0.4c-0.2-0.4-0.1-0.9,0.3-1.1l2.8-1.6
			c0.4-0.2,0.9-0.1,1.1,0.3s0.1,0.9-0.3,1.1l-2.8,1.6C539.5,289.9,539.3,289.9,539.2,289.9L539.2,289.9z M544.7,286.7
			c-0.3,0-0.5-0.1-0.7-0.4c-0.2-0.4-0.1-0.9,0.3-1.1l2.8-1.6c0.4-0.2,0.9-0.1,1.1,0.3s0.1,0.9-0.3,1.1l-2.8,1.6
			C545,286.6,544.8,286.7,544.7,286.7L544.7,286.7z M548.9,282.7c-0.4,0-0.8-0.4-0.8-0.8v-3.2c0-0.4,0.4-0.8,0.8-0.8
			s0.8,0.4,0.8,0.8v3.2C549.7,282.3,549.4,282.7,548.9,282.7z M548.9,276.3c-0.4,0-0.8-0.4-0.8-0.8v-3.2c0-0.4,0.4-0.8,0.8-0.8
			s0.8,0.4,0.8,0.8v3.2C549.7,275.9,549.4,276.3,548.9,276.3z M548.9,269.9c-0.4,0-0.8-0.4-0.8-0.8v-3.2c0-0.4,0.4-0.8,0.8-0.8
			s0.8,0.4,0.8,0.8v3.2C549.7,269.5,549.4,269.9,548.9,269.9z M548.9,263.5c-0.4,0-0.8-0.4-0.8-0.8v-3.2c0-0.4,0.4-0.8,0.8-0.8
			s0.8,0.4,0.8,0.8v3.2C549.7,263.1,549.4,263.5,548.9,263.5z M548.9,257c-0.4,0-0.8-0.4-0.8-0.8V253c0-0.4,0.4-0.8,0.8-0.8
			s0.8,0.4,0.8,0.8v3.2C549.7,256.7,549.4,257,548.9,257z M548.9,250.6c-0.4,0-0.8-0.4-0.8-0.8v-3.2c0-0.4,0.4-0.8,0.8-0.8
			s0.8,0.4,0.8,0.8v3.2C549.7,250.3,549.4,250.6,548.9,250.6z M548.9,244.2c-0.4,0-0.8-0.4-0.8-0.8v-3.2c0-0.4,0.4-0.8,0.8-0.8
			s0.8,0.4,0.8,0.8v3.2C549.7,243.9,549.4,244.2,548.9,244.2z M548.9,237.8c-0.4,0-0.8-0.4-0.8-0.8v-3.2c0-0.4,0.4-0.8,0.8-0.8
			s0.8,0.4,0.8,0.8v3.2C549.7,237.4,549.4,237.8,548.9,237.8z M548.9,231.4c-0.4,0-0.8-0.4-0.8-0.8v-0.5l-1.5-0.9
			c-0.4-0.2-0.5-0.7-0.3-1.1c0.2-0.4,0.7-0.5,1.1-0.3l1.9,1.1c0.2,0.1,0.4,0.4,0.4,0.7v1C549.8,231,549.4,231.4,548.9,231.4
			L548.9,231.4z M544.3,227.7c-0.1,0-0.3,0-0.4-0.1l-2.8-1.6c-0.4-0.2-0.5-0.7-0.3-1.1c0.2-0.4,0.7-0.5,1.1-0.3l2.8,1.6
			c0.4,0.2,0.5,0.7,0.3,1.1C544.8,227.5,544.5,227.7,544.3,227.7L544.3,227.7z M538.7,224.5c-0.1,0-0.3,0-0.4-0.1l-2.8-1.6
			c-0.4-0.2-0.5-0.7-0.3-1.1c0.2-0.4,0.7-0.5,1.1-0.3l2.8,1.6c0.4,0.2,0.5,0.7,0.3,1.1C539.3,224.3,539,224.5,538.7,224.5
			L538.7,224.5z M533.2,221.2c-0.1,0-0.3,0-0.4-0.1l-2.8-1.6c-0.4-0.2-0.5-0.7-0.3-1.1c0.2-0.4,0.7-0.5,1.1-0.3l2.8,1.6
			c0.4,0.2,0.5,0.7,0.3,1.1C533.7,221.1,533.5,221.2,533.2,221.2L533.2,221.2z M527.6,218c-0.1,0-0.3,0-0.4-0.1l-2.8-1.6
			c-0.4-0.2-0.5-0.7-0.3-1.1c0.2-0.4,0.7-0.5,1.1-0.3l2.8,1.6c0.4,0.2,0.5,0.7,0.3,1.1C528.2,217.9,527.9,218,527.6,218L527.6,218z
			 M522.1,214.8c-0.1,0-0.3,0-0.4-0.1l-2.8-1.6c-0.4-0.2-0.5-0.7-0.3-1.1c0.2-0.4,0.7-0.5,1.1-0.3l2.8,1.6c0.4,0.2,0.5,0.7,0.3,1.1
			C522.7,214.7,522.4,214.8,522.1,214.8L522.1,214.8z M516.6,211.6c-0.1,0-0.3,0-0.4-0.1l-2.8-1.6c-0.4-0.2-0.5-0.7-0.3-1.1
			c0.2-0.4,0.7-0.5,1.1-0.3l2.8,1.6c0.4,0.2,0.5,0.7,0.3,1.1C517.1,211.4,516.8,211.6,516.6,211.6L516.6,211.6z M511,208.4
			c-0.1,0-0.3,0-0.4-0.1l-2.8-1.6c-0.4-0.2-0.5-0.7-0.3-1.1s0.7-0.5,1.1-0.3l2.8,1.6c0.4,0.2,0.5,0.7,0.3,1.1
			C511.6,208.2,511.3,208.4,511,208.4L511,208.4z M505.5,205.1c-0.1,0-0.3,0-0.4-0.1l-2.8-1.6c-0.4-0.2-0.5-0.7-0.3-1.1
			s0.7-0.5,1.1-0.3l2.8,1.6c0.4,0.2,0.5,0.7,0.3,1.1C506,205,505.8,205.1,505.5,205.1L505.5,205.1z M499.9,201.9
			c-0.1,0-0.3,0-0.4-0.1l-2.8-1.6c-0.4-0.2-0.5-0.7-0.3-1.1s0.7-0.5,1.1-0.3l2.8,1.6c0.4,0.2,0.5,0.7,0.3,1.1
			C500.5,201.8,500.2,201.9,499.9,201.9L499.9,201.9z M494.4,198.7c-0.1,0-0.3,0-0.4-0.1l-2.8-1.6c-0.4-0.2-0.5-0.7-0.3-1.1
			s0.7-0.5,1.1-0.3l2.8,1.6c0.4,0.2,0.5,0.7,0.3,1.1C495,198.6,494.7,198.7,494.4,198.7L494.4,198.7z M488.9,195.5
			c-0.1,0-0.3,0-0.4-0.1l-2.8-1.6c-0.4-0.2-0.5-0.7-0.3-1.1s0.7-0.5,1.1-0.3l2.8,1.6c0.4,0.2,0.5,0.7,0.3,1.1
			C489.4,195.3,489.1,195.5,488.9,195.5L488.9,195.5z M483.3,192.3c-0.1,0-0.3,0-0.4-0.1l-2.8-1.6c-0.4-0.2-0.5-0.7-0.3-1.1
			s0.7-0.5,1.1-0.3l2.8,1.6c0.4,0.2,0.5,0.7,0.3,1.1C483.9,192.1,483.6,192.3,483.3,192.3L483.3,192.3z M477.8,189
			c-0.1,0-0.3,0-0.4-0.1l-2.8-1.6c-0.4-0.2-0.5-0.7-0.3-1.1s0.7-0.5,1.1-0.3l2.8,1.6c0.4,0.2,0.5,0.7,0.3,1.1
			C478.3,188.9,478.1,189,477.8,189L477.8,189z M472.2,185.8c-0.1,0-0.3,0-0.4-0.1l-2.8-1.6c-0.4-0.2-0.5-0.7-0.3-1.1
			s0.7-0.5,1.1-0.3l2.8,1.6c0.4,0.2,0.5,0.7,0.3,1.1C472.8,185.7,472.5,185.8,472.2,185.8L472.2,185.8z M466.7,182.6
			c-0.1,0-0.3,0-0.4-0.1l-2.8-1.6c-0.4-0.2-0.5-0.7-0.3-1.1s0.7-0.5,1.1-0.3l2.8,1.6c0.4,0.2,0.5,0.7,0.3,1.1
			C467.3,182.5,467,182.6,466.7,182.6L466.7,182.6z M461.2,179.4c-0.1,0-0.3,0-0.4-0.1l-2.8-1.6c-0.4-0.2-0.5-0.7-0.3-1.1
			s0.7-0.5,1.1-0.3l2.8,1.6c0.4,0.2,0.5,0.7,0.3,1.1C461.7,179.2,461.4,179.4,461.2,179.4L461.2,179.4z M455.6,176.2
			c-0.1,0-0.3,0-0.4-0.1l-2.8-1.6c-0.4-0.2-0.5-0.7-0.3-1.1s0.7-0.5,1.1-0.3l2.8,1.6c0.4,0.2,0.5,0.7,0.3,1.1
			C456.2,176,455.9,176.2,455.6,176.2L455.6,176.2z M450.1,172.9c-0.1,0-0.3,0-0.4-0.1l-2.8-1.6c-0.4-0.2-0.5-0.7-0.3-1.1
			s0.7-0.5,1.1-0.3l2.8,1.6c0.4,0.2,0.5,0.7,0.3,1.1C450.6,172.8,450.4,172.9,450.1,172.9L450.1,172.9z"/>
		<path class="st1" d="M62.2,332.8l-2.8-1.6c-0.4-0.2-0.5-0.7-0.3-1.1c0.2-0.4,0.7-0.5,1.1-0.3l2.8,1.6c0.4,0.2,0.5,0.7,0.3,1.1
			c-0.2,0.2-0.4,0.4-0.7,0.4C62.5,332.9,62.4,332.9,62.2,332.8L62.2,332.8z M56.7,329.6l-2.8-1.6c-0.4-0.2-0.5-0.7-0.3-1.1
			s0.7-0.5,1.1-0.3l2.8,1.6c0.4,0.2,0.5,0.7,0.3,1.1c-0.2,0.2-0.4,0.4-0.7,0.4C57,329.7,56.9,329.6,56.7,329.6L56.7,329.6z
			 M51.2,326.3l-2.8-1.6c-0.4-0.2-0.5-0.7-0.3-1.1s0.7-0.5,1.1-0.3l2.8,1.6c0.4,0.2,0.5,0.7,0.3,1.1c-0.2,0.2-0.4,0.4-0.7,0.4
			C51.5,326.4,51.3,326.4,51.2,326.3L51.2,326.3z M45.7,323.1l-2.8-1.6c-0.4-0.2-0.5-0.7-0.3-1.1c0.2-0.4,0.7-0.5,1.1-0.3l2.8,1.6
			c0.4,0.2,0.5,0.7,0.3,1.1c-0.2,0.2-0.4,0.4-0.7,0.4C45.9,323.2,45.8,323.1,45.7,323.1L45.7,323.1z M40.2,319.8l-2.8-1.6
			c-0.4-0.2-0.5-0.7-0.3-1.1s0.7-0.5,1.1-0.3l2.8,1.6c0.4,0.2,0.5,0.7,0.3,1.1c-0.2,0.2-0.4,0.4-0.7,0.4
			C40.4,319.9,40.3,319.9,40.2,319.8L40.2,319.8z M35.5,315.1v-3.2c0-0.4,0.4-0.8,0.8-0.8s0.8,0.4,0.8,0.8v3.2
			c0,0.4-0.4,0.8-0.8,0.8S35.5,315.6,35.5,315.1z M35.5,308.7v-3.2c0-0.4,0.4-0.8,0.8-0.8s0.8,0.4,0.8,0.8v3.2
			c0,0.4-0.4,0.8-0.8,0.8S35.5,309.2,35.5,308.7z M35.5,302.3v-3.2c0-0.4,0.4-0.8,0.8-0.8s0.8,0.4,0.8,0.8v3.2
			c0,0.4-0.4,0.8-0.8,0.8S35.5,302.8,35.5,302.3z M35.5,295.9v-3.2c0-0.4,0.4-0.8,0.8-0.8s0.8,0.4,0.8,0.8v3.2
			c0,0.4-0.4,0.8-0.8,0.8S35.5,296.4,35.5,295.9z M35.5,289.5v-3.2c0-0.4,0.4-0.8,0.8-0.8s0.8,0.4,0.8,0.8v3.2
			c0,0.4-0.4,0.8-0.8,0.8S35.5,289.9,35.5,289.5z M35.5,283.1v-3.2c0-0.4,0.4-0.8,0.8-0.8s0.8,0.4,0.8,0.8v3.2
			c0,0.4-0.4,0.8-0.8,0.8S35.5,283.5,35.5,283.1z M35.5,276.7v-4.2c0-0.3,0.2-0.5,0.4-0.7l1.9-1.1c0.4-0.2,0.9-0.1,1.1,0.3
			c0.2,0.4,0.1,0.9-0.3,1.1l-1.5,0.9v3.7c0,0.4-0.4,0.8-0.8,0.8S35.5,277.1,35.5,276.7L35.5,276.7z M40.3,270.2
			c-0.2-0.4-0.1-0.9,0.3-1.1l2.8-1.6c0.4-0.2,0.9-0.1,1.1,0.3c0.2,0.4,0.1,0.9-0.3,1.1l-2.8,1.6c-0.1,0.1-0.3,0.1-0.4,0.1
			C40.7,270.6,40.5,270.4,40.3,270.2L40.3,270.2z M45.9,266.9c-0.2-0.4-0.1-0.9,0.3-1.1l2.8-1.6c0.4-0.2,0.9-0.1,1.1,0.3
			c0.2,0.4,0.1,0.9-0.3,1.1l-2.8,1.6c-0.1,0.1-0.3,0.1-0.4,0.1C46.3,267.3,46,267.2,45.9,266.9L45.9,266.9z M51.4,263.7
			c-0.2-0.4-0.1-0.9,0.3-1.1l2.8-1.6c0.4-0.2,0.9-0.1,1.1,0.3c0.2,0.4,0.1,0.9-0.3,1.1l-2.8,1.6c-0.1,0.1-0.3,0.1-0.4,0.1
			C51.8,264.1,51.5,264,51.4,263.7L51.4,263.7z"/>
		<g>
			<path class="st1" d="M403.2,340.2l-44.2,25.5L315,340.3l44.2-25.5L403.2,340.2L403.2,340.2z M406.5,340.2l-47.4-27.4l-47.4,27.4
				l47.4,27.4L406.5,340.2L406.5,340.2z"/>
			<polygon class="st1" points="352.4,371.3 305.2,344 307.1,342.9 354.3,370.2 			"/>
			<polygon class="st1" points="346.9,374.4 299.8,347.2 301.7,346.1 348.9,373.3 			"/>
			<polygon class="st1" points="319.4,364.9 294.2,350.4 296.1,349.3 321.3,363.8 			"/>
			<path class="st1" d="M464.4,375.5L420.2,401l-44.1-25.4l44.2-25.5L464.4,375.5L464.4,375.5z M467.7,375.5l-47.4-27.4l-47.4,27.4
				l47.4,27.4L467.7,375.5L467.7,375.5z"/>
			<polygon class="st1" points="413.6,406.6 366.4,379.3 368.3,378.2 415.5,405.5 			"/>
			<polygon class="st1" points="408.1,409.7 360.9,382.5 362.8,381.4 410,408.6 			"/>
			<polygon class="st1" points="380.5,400.2 355.3,385.7 357.2,384.6 382.4,399.1 			"/>
			<path class="st1" d="M321.1,387.6L277,413.1l-44.1-25.4l44.2-25.5L321.1,387.6L321.1,387.6z M324.4,387.6L277,360.3l-47.4,27.4
				L277,415L324.4,387.6L324.4,387.6L324.4,387.6z"/>
			<polygon class="st1" points="270.3,418.7 223.1,391.4 225,390.3 272.2,417.6 			"/>
			<polygon class="st1" points="264.8,421.8 217.6,394.6 219.6,393.5 266.8,420.7 			"/>
			<polygon class="st1" points="237.2,412.3 212.1,397.8 214,396.7 239.1,411.2 			"/>
			<path class="st1" d="M382.3,423l-44.2,25.5L294,423l44.2-25.5L382.3,423L382.3,423z M385.6,423l-47.4-27.4L290.7,423l47.4,27.4
				L385.6,423L385.6,423z"/>
			<polygon class="st1" points="331.5,454 284.3,426.7 286.2,425.6 333.4,452.9 			"/>
			<polygon class="st1" points="326,457.1 278.8,429.9 280.7,428.8 327.9,456 			"/>
			<polygon class="st1" points="298.4,447.6 273.2,433.1 275.1,432 300.3,446.5 			"/>
			<path class="st1" d="M238.6,435.3l-44.2,25.5l-44.1-25.4l44.2-25.5L238.6,435.3L238.6,435.3L238.6,435.3z M241.9,435.3
				l-47.4-27.4l-47.4,27.4l47.4,27.4L241.9,435.3L241.9,435.3L241.9,435.3z"/>
			<polygon class="st1" points="187.8,466.3 140.6,439 142.6,438 189.8,465.2 			"/>
			<polygon class="st1" points="182.4,469.5 135.2,442.2 137.1,441.1 184.3,468.4 			"/>
			<polygon class="st1" points="154.8,460 129.6,445.4 131.5,444.3 156.7,458.8 			"/>
			<path class="st1" d="M299.8,470.6l-44.2,25.5l-44.1-25.4l44.2-25.5L299.8,470.6L299.8,470.6z M303.1,470.6l-47.4-27.4l-47.4,27.4
				l47.4,27.4L303.1,470.6L303.1,470.6z"/>
			<polygon class="st1" points="249,501.6 201.8,474.4 203.7,473.2 250.9,500.5 			"/>
			<polygon class="st1" points="243.5,504.8 196.3,477.5 198.2,476.4 245.4,503.6 			"/>
			<polygon class="st1" points="215.9,495.2 190.8,480.7 192.7,479.6 217.8,494.1 			"/>
			<path class="st1" d="M383.4,292.8l16.1,9.3c0.7,0.4,1.7,0.4,2.4,0c0.7-0.4,0.7-1,0-1.4l-16.1-9.3c-0.7-0.4-1.7-0.4-2.4,0
				C382.7,291.8,382.7,292.4,383.4,292.8L383.4,292.8z M397.9,303.1l-16.1-9.3c-0.7-0.4-1.7-0.4-2.4,0c-0.7,0.4-0.7,1,0,1.4
				l16.1,9.3c0.7,0.4,1.7,0.4,2.4,0C398.5,304.1,398.5,303.5,397.9,303.1L397.9,303.1z M393.8,305.4l-16.1-9.3
				c-0.7-0.4-1.7-0.4-2.4,0s-0.7,1,0,1.4l16.1,9.3c0.7,0.4,1.7,0.4,2.4,0C394.5,306.4,394.5,305.8,393.8,305.4L393.8,305.4z"/>
			<path class="st1" d="M216.3,524.6L101,458c-7.6-4.4-7.6-11.5-0.1-15.9l271.5-156.8c7.5-4.4,19.9-4.3,27.5,0L515.2,352
				c7.6,4.4,7.6,11.5,0.1,15.9L243.8,524.6C236.2,529,223.9,529,216.3,524.6z M398.8,286.1c-7-4-18.3-4-25.3,0L102,442.8
				c-6.9,4-6.9,10.5,0.1,14.6l115.3,66.6c7,4,18.3,4,25.3,0l271.5-156.8c6.9-4,6.9-10.5-0.1-14.6L398.8,286.1L398.8,286.1z"/>
			<path class="st1" d="M493.7,360c0,0.5-0.7,0.9-1.5,0.9c-0.9,0-1.6-0.4-1.6-0.9s0.7-0.9,1.5-0.9C493,359.1,493.7,359.5,493.7,360z
				"/>
			<path class="st1" d="M491.3,352.8c-0.1,0-0.2,0-0.2,0v0.9c0.1,0,0.2,0,0.3,0c6.4,0,11.7,3,11.7,6.8c0,0,0,0,0,0h1.5c0,0,0,0,0,0
				C504.5,356.2,498.6,352.8,491.3,352.8L491.3,352.8z"/>
			<path class="st1" d="M491.3,356.4c-0.1,0-0.2,0-0.2,0v0.9c0.1,0,0.2,0,0.3,0c3,0,5.4,1.4,5.5,3.1c0,0,0,0,0,0h1.5c0,0,0,0,0,0
				C498.3,358.2,495.2,356.4,491.3,356.4z"/>
			<path class="st1" d="M491.3,354.6c-0.1,0-0.2,0-0.2,0v0.9c0.1,0,0.2,0,0.3,0c4.7,0,8.5,2.2,8.6,5c0,0,0,0,0,0h1.5c0,0,0,0,0,0
				C501.4,357.2,496.9,354.6,491.3,354.6z"/>
			<polygon class="st1" points="461.3,343.4 414.8,316.6 417.8,314.8 464.3,341.7 			"/>
		</g>
		<g class="st2">
			<path class="st3" d="M203.6,503.2c8,0,15.3-1.8,21.1-5.1l293.8-169.1c7.7-4.4,12.1-11.5,12.1-19.3c0-8.6-5.3-16.5-14.6-21.9
				l-126.7-73.2c-7.3-4.2-16.4-6.5-25.6-6.5c-8,0-15.3,1.8-21.1,5.1L48.8,382.4c-7.7,4.4-12.1,11.5-12.1,19.3
				c0,8.6,5.3,16.5,14.6,21.9L178,496.7C185.2,500.9,194.3,503.2,203.6,503.2L203.6,503.2z"/>
			<path class="st3" d="M342.8,213.8L49,382.9c-7.4,4.3-11.6,11-11.5,18.4c0,8.1,5.1,15.7,14,20.8l121,69.9c0.2,0.1,6.1,3.5,6.3,3.6
				c7.5,4.1,16.7,6.1,25.8,5.8c7.3,0,15.6-2.5,20.8-5.5l292.1-168.2c7.4-4.3,11.6-11,11.5-18.4c0-8.1-5.1-15.7-14-20.8l-126-72.7
				c-2.6-1.5-6.3-3.2-9.3-4.1c-5-1.6-10.5-2.6-16-2.6C355.8,208.8,348.5,210.5,342.8,213.8L342.8,213.8z"/>
			<path class="st3" d="M343,214.3L49.3,383.4c-7.1,4.1-11,10.5-11,17.5c0.1,7.7,4.9,14.9,13.4,19.8l121.6,70.2
				c0.4,0.2,5.9,3.4,6.4,3.5c7.6,4,17.1,5.8,25.9,5c6.6,0,15.8-3.3,20.5-6l290.5-167.2c7.1-4.1,11-10.5,11-17.5
				c-0.1-7.7-4.9-14.9-13.4-19.8L389,216.6c-2.4-1.4-6.5-3.3-9.2-4.2c-5-1.6-10.4-2.7-15.9-2.8C356,209.5,348.7,211.1,343,214.3
				L343,214.3z"/>
			<path class="st3" d="M343.3,214.8L49.5,383.9c-6.8,3.9-10.5,10-10.4,16.6c0.1,7.2,4.7,14,12.9,18.7l122.1,70.5
				c0.6,0.3,5.8,3.2,6.5,3.5c7.8,3.8,17.5,5.4,26.1,4.3c5.8,0,16-4.1,20.2-6.5l288.9-166.3c6.8-3.9,10.5-10,10.4-16.6
				c-0.1-7.2-4.7-14-12.9-18.7l-124.4-71.9c-2.1-1.2-6.7-3.4-9.1-4.3c-4.9-1.7-10.3-2.8-15.7-3C356.2,210.1,348.9,211.6,343.3,214.8
				L343.3,214.8z"/>
			<path class="st3" d="M343.5,215.3L49.7,384.4c-6.5,3.7-10,9.5-9.8,15.7c0.2,6.8,4.5,13.2,12.3,17.7l122.7,70.9
				c0.8,0.5,5.6,3.1,6.5,3.4c8,3.7,17.9,5,26.3,3.6c5.1,0,16.2-4.9,19.9-7l287.3-165.4c6.5-3.7,10-9.5,9.8-15.7
				c-0.2-6.8-4.5-13.2-12.3-17.7l-123.7-71.4c-1.8-1.1-6.9-3.6-9-4.4c-4.8-1.7-10.1-3-15.6-3.2C356.4,210.7,349.1,212.1,343.5,215.3
				L343.5,215.3z"/>
			<path class="st3" d="M343.7,215.8L50,384.9c-6.2,3.6-9.5,9-9.3,14.8c0.2,6.3,4.4,12.4,11.8,16.6l123.3,71.2c1,0.6,5.5,3,6.6,3.3
				c8.2,3.6,18.2,4.7,26.4,2.8c4.4,0,16.5-5.6,19.6-7.4L514,321.9c6.2-3.6,9.5-9,9.3-14.8c-0.2-6.3-4.4-12.4-11.8-16.6l-122.9-71
				c-1.6-0.9-7.1-3.8-8.9-4.4c-4.8-1.7-10-3.1-15.4-3.4C356.6,211.3,349.2,212.7,343.7,215.8L343.7,215.8z"/>
			<path class="st3" d="M344,216.3L50.2,385.5c-5.9,3.4-8.9,8.5-8.7,14c0.2,5.9,4.2,11.5,11.2,15.6l123.9,71.5
				c1.2,0.7,5.3,2.9,6.7,3.3c8.4,3.5,18.6,4.3,26.6,2.1c3.6,0,16.7-6.4,19.3-7.9l284.1-163.5c5.9-3.4,8.9-8.5,8.7-14
				c-0.2-5.9-4.2-11.5-11.2-15.6l-122.2-70.5c-1.3-0.8-7.3-3.9-8.8-4.5c-4.7-1.8-9.9-3.3-15.3-3.6
				C356.8,211.9,349.4,213.2,344,216.3L344,216.3z"/>
			<path class="st3" d="M344.2,216.9L50.5,386c-5.6,3.2-8.4,8-8.2,13.1c0.2,5.4,4,10.7,10.6,14.5l124.4,71.8
				c1.4,0.8,5.1,2.7,6.7,3.2c8.6,3.4,19,3.9,26.8,1.4c2.9,0,16.9-7.2,19-8.4l282.4-162.6c5.6-3.2,8.4-8,8.2-13.1
				c-0.3-5.4-4-10.7-10.6-14.5l-121.4-70.1c-1-0.6-7.5-4.1-8.7-4.6c-4.7-1.8-9.8-3.4-15.1-3.8C357,212.5,349.6,213.8,344.2,216.9
				L344.2,216.9z"/>
			<path class="st3" d="M344.5,217.4L50.7,386.5c-5.3,3-7.9,7.5-7.6,12.2c0.3,5,3.8,9.9,10.1,13.5l125,72.2c1.6,0.9,5,2.6,6.8,3.2
				c8.8,3.2,19.3,3.5,26.9,0.6c2.2,0,17.1-7.9,18.7-8.9l280.8-161.6c5.3-3,7.9-7.5,7.6-12.2c-0.3-5-3.8-9.9-10.1-13.5l-120.7-69.7
				c-0.8-0.5-7.7-4.3-8.6-4.6c-4.6-1.9-9.7-3.6-15-4C357.2,213.1,349.8,214.3,344.5,217.4L344.5,217.4z"/>
			<path class="st3" d="M344.7,217.9L50.9,387c-5,2.9-7.3,7-7,11.3c0.3,4.5,3.6,9,9.5,12.4L179,483.2c1.8,1,4.8,2.5,6.9,3.1
				c9,3.1,19.7,3.2,27.1-0.1c1.5,0,17.4-8.7,18.4-9.3l279.2-160.7c5-2.9,7.3-7,7-11.3c-0.3-4.5-3.6-9-9.5-12.4l-119.9-69.2
				c-0.5-0.3-7.9-4.4-8.5-4.7c-4.6-1.9-9.6-3.7-14.8-4.2C357.4,213.7,350,214.8,344.7,217.9L344.7,217.9z"/>
			<path class="st3" d="M344.9,218.4L51.2,387.5c-4.7,2.7-6.8,6.5-6.5,10.4c0.4,4.1,3.4,8.2,8.9,11.4l126.1,72.8
				c1.9,1.1,4.7,2.4,6.9,3.1c9.2,3,20.1,2.8,27.2-0.8c0.7,0,17.6-9.5,18.1-9.8l277.6-159.8c4.7-2.7,6.8-6.5,6.5-10.4
				c-0.4-4.1-3.4-8.2-8.9-11.4L388,224.2c-0.3-0.1-8.1-4.6-8.4-4.7c-4.5-1.9-9.4-3.8-14.6-4.4C357.5,214.3,350.1,215.4,344.9,218.4
				L344.9,218.4z"/>
			<path class="st3" d="M215,482.4l293.8-169.1c8.8-5.1,7.7-14-2.5-19.9l-126.7-73.2c-10.2-5.9-25.6-6.5-34.4-1.4L51.4,388
				c-8.8,5.1-7.7,14,2.5,19.9L180.6,481C190.8,486.9,206.2,487.5,215,482.4L215,482.4z"/>
		</g>
		
			<linearGradient id="SVGID_1_" gradientUnits="userSpaceOnUse" x1="5881.2388" y1="259.205" x2="6352.2017" y2="259.205" gradientTransform="matrix(-1 0 0 -1 6398.0601 579.89)">
			<stop  offset="0" style="stop-color:#2F054A"/>
			<stop  offset="1" style="stop-color:#5824B0"/>
		</linearGradient>
		<path class="st4" d="M173.4,451.4L54.9,383c-13.4-7.7-11.7-21.2,3.7-30.1l278.6-160.8c15.4-8.9,38.8-9.9,52.1-2.2l118.5,68.4
			c13.4,7.7,11.7,21.2-3.7,30.1L225.5,449.3C210.1,458.2,186.7,459.2,173.4,451.4L173.4,451.4z"/>
		
			<linearGradient id="SVGID_00000018237046484970040870000013110952591014992048_" gradientUnits="userSpaceOnUse" x1="5943.1602" y1="261.235" x2="6414.1304" y2="261.235" gradientTransform="matrix(-1 0 0 -1 6398.0601 579.89)">
			<stop  offset="6.000000e-02" style="stop-color:#2F0D5E"/>
			<stop  offset="0.28" style="stop-color:#2F105E"/>
			<stop  offset="0.47" style="stop-color:#311B61"/>
			<stop  offset="0.48" style="stop-color:#351F65"/>
			<stop  offset="0.5" style="stop-color:#422C72"/>
			<stop  offset="0.51" style="stop-color:#574188"/>
			<stop  offset="0.52" style="stop-color:#755FA6"/>
			<stop  offset="0.53" style="stop-color:#8770B8"/>
			<stop  offset="0.54" style="stop-color:#7D66AE"/>
			<stop  offset="0.56" style="stop-color:#5C458C"/>
			<stop  offset="0.59" style="stop-color:#442E74"/>
			<stop  offset="0.61" style="stop-color:#351F66"/>
			<stop  offset="0.63" style="stop-color:#311B61"/>
			<stop  offset="0.67" style="stop-color:#2A1054"/>
			<stop  offset="0.75" style="stop-color:#220446"/>
			<stop  offset="0.81" style="stop-color:#200041"/>
			<stop  offset="1" style="stop-color:#200041"/>
		</linearGradient>
		<path style="fill:url(#SVGID_00000018237046484970040870000013110952591014992048_);" d="M173.4,449.4L54.9,381
			c-6-3.5-8.9-8-9-12.9c0-0.4,0-9.7,0-10.1c0.5-5.6,4.8-2.5,12.7-7.1l278.6-160.8c15.4-8.9,38.8-9.9,52.1-2.2l118.5,68.4
			c6,3.4,8.9-2.6,9,2.2c0,0.4,0,11.5,0,11.9c-0.5,5.6-4.8,11.4-12.7,16L225.5,447.2C210.1,456.2,186.7,457.1,173.4,449.4
			L173.4,449.4z"/>
		
			<linearGradient id="SVGID_00000004540122374799785690000015287235116137255863_" gradientUnits="userSpaceOnUse" x1="5881.2388" y1="271.385" x2="6352.2017" y2="271.385" gradientTransform="matrix(-1 0 0 -1 6398.0601 579.89)">
			<stop  offset="0" style="stop-color:#58098A"/>
			<stop  offset="1" style="stop-color:#9E3BDB"/>
		</linearGradient>
		<path style="fill:url(#SVGID_00000004540122374799785690000015287235116137255863_);" d="M173.4,439.2L54.9,370.9
			c-13.4-7.7-11.7-21.2,3.7-30.1l278.6-160.8c15.4-8.9,38.8-9.9,52.1-2.2l118.5,68.4c13.4,7.7,11.7,21.2-3.7,30.1L225.5,437.1
			C210.1,446,186.7,447,173.4,439.2L173.4,439.2z"/>
		
			<radialGradient id="SVGID_00000136377785473106998190000016786054907238525602_" cx="249.82" cy="219.29" r="179.01" gradientTransform="matrix(1 0 0 -1 0 579.89)" gradientUnits="userSpaceOnUse">
			<stop  offset="0" style="stop-color:#FFFFFF"/>
			<stop  offset="1" style="stop-color:#000000"/>
		</radialGradient>
		<path style="fill:url(#SVGID_00000136377785473106998190000016786054907238525602_);" d="M54.9,369.5l118.5,68.4
			c13.4,7.7,36.7,6.8,52.1-2.2l278.6-160.8c8.1-4.7,12.4-10.6,12.7-16.4c0.3,6.1-4,12.6-12.7,17.7L225.5,437.1
			c-15.4,8.9-38.8,9.9-52.1,2.2L54.9,370.9c-6.3-3.6-9.3-8.6-9-13.7C46.1,361.8,49.1,366.2,54.9,369.5L54.9,369.5z"/>
		
			<linearGradient id="SVGID_00000018931680904885077520000010458344158090096773_" gradientUnits="userSpaceOnUse" x1="5885.9517" y1="271.38" x2="6347.4883" y2="271.38" gradientTransform="matrix(-1 0 0 -1 6398.0601 579.89)">
			<stop  offset="0" style="stop-color:#2F054A"/>
			<stop  offset="1" style="stop-color:#5E1D9A"/>
		</linearGradient>
		<path style="fill:url(#SVGID_00000018931680904885077520000010458344158090096773_);" d="M61.8,342.8l278.9-161
			c13.5-7.8,34-8.7,45.7-1.9l117.8,68c11.7,6.8,10.2,18.6-3.3,26.4L222,435.3c-13.5,7.8-34,8.7-45.7,1.9l-117.8-68
			C46.8,362.4,48.2,350.6,61.8,342.8L61.8,342.8z"/>
		<path class="st9" d="M67.2,345.1l277.5-160.2c11.3-6.5,28.5-7.2,38.3-1.6l115.3,66.6c9.8,5.7,8.6,15.6-2.8,22.1L218,432.2
			c-11.3,6.5-28.4,7.2-38.3,1.6L64.4,367.2C54.6,361.5,55.8,351.6,67.2,345.1L67.2,345.1z"/>
		<path class="st10" d="M381.9,185.4c-9.2-5.3-24.2-5.4-33.4-0.1L68,347.3c-9.2,5.3-9.1,13.9,0.1,19.3l112.6,65
			c9.2,5.3,24.2,5.4,33.4,0.1l280.6-162c9.2-5.3,9.1-13.9-0.1-19.3L381.9,185.4L381.9,185.4z"/>
		
			<linearGradient id="SVGID_00000112595186548206625650000017531030995144336769_" gradientUnits="userSpaceOnUse" x1="304.8342" y1="388.8292" x2="223.0943" y2="-19.8809" gradientTransform="matrix(1 0 0 -1 0 579.89)">
			<stop  offset="0" style="stop-color:#861EB2"/>
			<stop  offset="0.43" style="stop-color:#5F27BD"/>
			<stop  offset="0.9" style="stop-color:#3D065F"/>
		</linearGradient>
		<path style="fill:url(#SVGID_00000112595186548206625650000017531030995144336769_);" d="M197.5,433.4c5.9,0,11.4-1.3,15.4-3.6
			l280.6-162c3.7-2.1,5.7-4.8,5.7-7.6s-2.1-5.5-5.8-7.7l-112.6-65c-4.1-2.4-9.7-3.7-15.6-3.7s-11.4,1.3-15.4,3.6l-280.6,162
			c-3.7,2.1-5.7,4.8-5.7,7.6s2.1,5.5,5.8,7.7l112.7,65C186,432,191.6,433.4,197.5,433.4L197.5,433.4z"/>
		
			<linearGradient id="SVGID_00000127750512309461391470000008696182545697550517_" gradientUnits="userSpaceOnUse" x1="7975.272" y1="1105.599" x2="7997.9639" y2="1105.599" gradientTransform="matrix(-0.866 0.5 0.5001 -1.4434 6821.3979 -2089.4297)">
			<stop  offset="0" style="stop-color:#3D065F"/>
			<stop  offset="1" style="stop-color:#5F27BD"/>
		</linearGradient>
		<path style="fill:url(#SVGID_00000127750512309461391470000008696182545697550517_);" d="M451.4,315.5l12.9-7.5
			c1.6-0.9,2.9-3.4,2.9-5.6l0,0c0-2.1-1.3-3.1-2.9-2.2l-12.9,7.5c-1.6,0.9-2.9,3.4-2.9,5.6l0,0C448.5,315.5,449.8,316.5,451.4,315.5
			z"/>
		
			<linearGradient id="SVGID_00000059998945090222741470000015256171165275569058_" gradientUnits="userSpaceOnUse" x1="7975.272" y1="1105.599" x2="7997.9639" y2="1105.599" gradientTransform="matrix(-0.866 0.5 0.5001 -1.4434 6821.3979 -2089.4297)">
			<stop  offset="0" style="stop-color:#2F054A"/>
			<stop  offset="1" style="stop-color:#5824B0"/>
		</linearGradient>
		<path style="fill:url(#SVGID_00000059998945090222741470000015256171165275569058_);" d="M451.4,315.5l12.9-7.5
			c1.6-0.9,2.9-3.4,2.9-5.6l0,0c0-2.1-1.3-3.1-2.9-2.2l-12.9,7.5c-1.6,0.9-2.9,3.4-2.9,5.6l0,0C448.5,315.5,449.8,316.5,451.4,315.5
			z"/>
		
			<linearGradient id="SVGID_00000145029786144304273990000004722001401668701571_" gradientUnits="userSpaceOnUse" x1="7950.4302" y1="1038.5012" x2="7941.0405" y2="1020.9913" gradientTransform="matrix(-0.866 0.5 0.5001 -1.4434 6821.3979 -2089.4297)">
			<stop  offset="6.000000e-02" style="stop-color:#9F79B8"/>
			<stop  offset="0.26" style="stop-color:#A07BB9"/>
			<stop  offset="0.36" style="stop-color:#A782BF"/>
			<stop  offset="0.43" style="stop-color:#B28FC8"/>
			<stop  offset="0.49" style="stop-color:#C1A1D5"/>
			<stop  offset="0.51" style="stop-color:#C3A5D6"/>
			<stop  offset="0.52" style="stop-color:#CCB2DC"/>
			<stop  offset="0.53" style="stop-color:#DAC8E6"/>
			<stop  offset="0.55" style="stop-color:#EEE6F4"/>
			<stop  offset="0.56" style="stop-color:#FFFFFF"/>
			<stop  offset="0.57" style="stop-color:#EBDFF3"/>
			<stop  offset="0.58" style="stop-color:#DDC7EA"/>
			<stop  offset="0.59" style="stop-color:#D4B9E4"/>
			<stop  offset="0.6" style="stop-color:#D1B4E3"/>
			<stop  offset="0.66" style="stop-color:#B294D5"/>
			<stop  offset="0.72" style="stop-color:#9B7CCB"/>
			<stop  offset="0.77" style="stop-color:#8D6EC5"/>
			<stop  offset="0.81" style="stop-color:#8969C3"/>
			<stop  offset="1" style="stop-color:#B086CC"/>
		</linearGradient>
		<path style="fill:url(#SVGID_00000145029786144304273990000004722001401668701571_);" d="M450.3,315.1c0.2,0,0.5-0.1,0.8-0.2
			l12.9-7.5c1.4-0.8,2.5-3,2.5-4.9c0-0.8-0.3-1.8-1-1.8c-0.2,0-0.5,0.1-0.8,0.2l-12.9,7.5c-1.4,0.8-2.5,3-2.5,4.9
			C449.3,314.2,449.5,315.1,450.3,315.1z"/>
		
			<linearGradient id="SVGID_00000084507202635029775270000017482075112043297922_" gradientUnits="userSpaceOnUse" x1="8001.8916" y1="1105.5972" x2="8024.5835" y2="1105.5972" gradientTransform="matrix(-0.866 0.5 0.5001 -1.4434 6821.3979 -2089.4297)">
			<stop  offset="0" style="stop-color:#3D065F"/>
			<stop  offset="1" style="stop-color:#5F27BD"/>
		</linearGradient>
		<path style="fill:url(#SVGID_00000084507202635029775270000017482075112043297922_);" d="M428.4,328.8l12.9-7.5
			c1.6-0.9,2.9-3.4,2.9-5.6l0,0c0-2.1-1.3-3.1-2.9-2.2l-12.9,7.5c-1.6,0.9-2.9,3.4-2.9,5.6l0,0C425.5,328.8,426.8,329.8,428.4,328.8
			z"/>
		
			<linearGradient id="SVGID_00000088099149582807208630000010802381413140945572_" gradientUnits="userSpaceOnUse" x1="8001.8916" y1="1105.5972" x2="8024.5835" y2="1105.5972" gradientTransform="matrix(-0.866 0.5 0.5001 -1.4434 6821.3979 -2089.4297)">
			<stop  offset="0" style="stop-color:#2F054A"/>
			<stop  offset="1" style="stop-color:#5824B0"/>
		</linearGradient>
		<path style="fill:url(#SVGID_00000088099149582807208630000010802381413140945572_);" d="M428.4,328.8l12.9-7.5
			c1.6-0.9,2.9-3.4,2.9-5.6l0,0c0-2.1-1.3-3.1-2.9-2.2l-12.9,7.5c-1.6,0.9-2.9,3.4-2.9,5.6l0,0C425.5,328.8,426.8,329.8,428.4,328.8
			z"/>
		
			<linearGradient id="SVGID_00000016063102038027870830000012145708123252218019_" gradientUnits="userSpaceOnUse" x1="7971.1201" y1="1027.4106" x2="7961.73" y2="1009.8906" gradientTransform="matrix(-0.866 0.5 0.5001 -1.4434 6821.3979 -2089.4297)">
			<stop  offset="6.000000e-02" style="stop-color:#9F79B8"/>
			<stop  offset="0.26" style="stop-color:#A07BB9"/>
			<stop  offset="0.36" style="stop-color:#A782BF"/>
			<stop  offset="0.43" style="stop-color:#B28FC8"/>
			<stop  offset="0.49" style="stop-color:#C1A1D5"/>
			<stop  offset="0.51" style="stop-color:#C3A5D6"/>
			<stop  offset="0.52" style="stop-color:#CCB2DC"/>
			<stop  offset="0.53" style="stop-color:#DAC8E6"/>
			<stop  offset="0.55" style="stop-color:#EEE6F4"/>
			<stop  offset="0.56" style="stop-color:#FFFFFF"/>
			<stop  offset="0.57" style="stop-color:#EBDFF3"/>
			<stop  offset="0.58" style="stop-color:#DDC7EA"/>
			<stop  offset="0.59" style="stop-color:#D4B9E4"/>
			<stop  offset="0.6" style="stop-color:#D1B4E3"/>
			<stop  offset="0.66" style="stop-color:#B294D5"/>
			<stop  offset="0.72" style="stop-color:#9B7CCB"/>
			<stop  offset="0.77" style="stop-color:#8D6EC5"/>
			<stop  offset="0.81" style="stop-color:#8969C3"/>
			<stop  offset="1" style="stop-color:#B086CC"/>
		</linearGradient>
		<path style="fill:url(#SVGID_00000016063102038027870830000012145708123252218019_);" d="M427.2,328.4c0.2,0,0.5-0.1,0.8-0.2
			l12.9-7.5c1.4-0.8,2.5-3,2.5-4.9c0-0.8-0.3-1.8-1-1.8c-0.2,0-0.5,0.1-0.8,0.2l-12.9,7.5c-1.4,0.8-2.5,3-2.5,4.9
			C426.2,327.5,426.5,328.4,427.2,328.4z"/>
		<path class="st10" d="M315.9,385.1L504.1,276c7.9-4.6,12.2-10.4,12.7-16c0-0.2,0-2.4,0-4.9c0,0.1,0,11.6,0,12.1
			c-0.5,5.6-4.8,11.4-12.7,16L315.9,385.1z"/>
		
			<radialGradient id="SVGID_00000109714695374811251040000010055519824146488484_" cx="5205.0015" cy="857.1366" r="84.9003" gradientTransform="matrix(-0.9228 0.3853 -0.2543 -0.6091 5428.4702 -1150.7955)" gradientUnits="userSpaceOnUse">
			<stop  offset="0" style="stop-color:#972A74"/>
			<stop  offset="4.000000e-02" style="stop-color:#8A266A"/>
			<stop  offset="0.19" style="stop-color:#601A49"/>
			<stop  offset="0.35" style="stop-color:#3D112F"/>
			<stop  offset="0.51" style="stop-color:#22091A"/>
			<stop  offset="0.67" style="stop-color:#0F040B"/>
			<stop  offset="0.83" style="stop-color:#030102"/>
			<stop  offset="1" style="stop-color:#000000"/>
		</radialGradient>
		<path style="opacity:0.17;fill:url(#SVGID_00000109714695374811251040000010055519824146488484_);enable-background:new    ;" d="
			M385.2,279.5c43.3-18.1,88.1-9.4,100.1,19.3c12,28.7-13.4,66.7-56.6,84.7c-43.3,18.1-88.1,9.4-100.1-19.3
			C316.6,335.5,341.9,297.6,385.2,279.5z"/>
		
			<radialGradient id="SVGID_00000178910389003883407170000017083938182920876477_" cx="6814.0767" cy="-1998.0748" r="44.19" gradientTransform="matrix(-0.9249 -0.3801 0.2509 -0.6105 7010.2173 1809.8076)" gradientUnits="userSpaceOnUse">
			<stop  offset="0" style="stop-color:#972A74"/>
			<stop  offset="4.000000e-02" style="stop-color:#8A266A"/>
			<stop  offset="0.19" style="stop-color:#601A49"/>
			<stop  offset="0.35" style="stop-color:#3D112F"/>
			<stop  offset="0.51" style="stop-color:#22091A"/>
			<stop  offset="0.67" style="stop-color:#0F040B"/>
			<stop  offset="0.83" style="stop-color:#030102"/>
			<stop  offset="1" style="stop-color:#000000"/>
		</radialGradient>
		<path style="opacity:0.17;fill:url(#SVGID_00000178910389003883407170000017083938182920876477_);enable-background:new    ;" d="
			M162.1,431.7c6.2-15,29.4-19.6,52-10.3s35.9,28.9,29.7,43.9c-6.2,15-29.4,19.6-52,10.3C169.3,466.3,156,446.7,162.1,431.7z"/>
		<path class="st3" d="M103.3,408.1l21.2,12.2l0,0c0-3.9-2.4-8.4-5.3-10l-10.7-6.2C105.6,402.5,103.3,404.2,103.3,408.1L103.3,408.1
			z"/>
		<path class="st20" d="M111,352c0.9,0,1.9,0.2,3,0.8c2.3,1.3,1.5,2.5-0.1,3.6c0.2,0.2,0.1,0.5-0.3,0.8c-0.2,0.1-0.4,0.1-0.7,0.1
			c-0.3,0-0.6,0-0.8-0.1c-0.8,0.2-1.6,0.3-2.4,0.3c-0.6,0-1.1,0.3-1.1,0.6c0,0.6,0.3,1.2,0.9,1.7c0.7,0.7,0.6,1.6-0.4,2.2l-1.8,1
			c-0.2,0.1-0.4,0.1-0.6,0.1s-0.4,0-0.6-0.1l-9.5-5.5c-0.3-0.2-0.3-0.5,0-0.7l1.8-1c0.6-0.3,1.4-0.5,2.2-0.5c0.6,0,1.1,0.1,1.6,0.3
			c0.9,0.3,1.9,0.5,2.9,0.5c0,0,0,0,0,0c0.6,0,1.1-0.3,1.1-0.6c0-0.5,0.1-0.9,0.4-1.4c-0.2-0.2-0.3-0.7,0.1-0.9
			c0.3-0.2,0.6-0.2,0.9-0.2c0.1,0,0.3,0,0.4,0C108.7,352.3,109.8,352,111,352L111,352z M111,350.7L111,350.7c-1.1,0-2.3,0.3-3.4,0.8
			c-0.1,0-0.1,0-0.2,0c-0.6,0-1.1,0.1-1.6,0.4c-0.5,0.3-0.8,0.8-0.9,1.3c0,0.2,0,0.4,0,0.7c-0.1,0.2-0.2,0.5-0.2,0.8
			c-0.8,0-1.6-0.2-2.4-0.4c-0.6-0.2-1.3-0.3-2.1-0.3c-1,0-2,0.2-2.8,0.7l-1.8,1c-0.6,0.3-0.9,0.9-0.9,1.5s0.3,1.1,0.9,1.5l9.5,5.5
			c0.4,0.2,0.8,0.3,1.3,0.3s0.9-0.1,1.3-0.3l1.8-1c0.9-0.5,1.4-1.2,1.5-2.1c0.1-0.8-0.2-1.5-0.8-2.1c0,0-0.1-0.1-0.1-0.1
			c0.6,0,1.2-0.1,1.8-0.2c0.3,0.1,0.6,0.1,0.8,0.1c0.5,0,1-0.1,1.4-0.3c0.5-0.3,0.9-0.7,1-1.2c0.7-0.5,1.5-1.4,1.5-2.5
			c0-1-0.7-2-2.1-2.8C113.4,351,112.2,350.7,111,350.7L111,350.7L111,350.7z"/>
		<path class="st20" d="M195.2,403.5l1.2,1.2c0.3,0,0.7,0,1,0s0.7,0,1,0l1.2-1.2c0.8,0.1,1.5,0.3,2.2,0.5l-0.6,1.3
			c0.3,0.1,0.5,0.2,0.8,0.4s0.5,0.3,0.7,0.5l2.3-0.3c0.4,0.4,0.7,0.8,0.9,1.3l-2,0.7c0.1,0.4,0.1,0.8,0,1.2l2,0.7
			c-0.2,0.4-0.5,0.9-0.9,1.3l-2.3-0.3c-0.2,0.2-0.4,0.3-0.7,0.5s-0.5,0.3-0.8,0.4l0.6,1.3c-0.7,0.2-1.4,0.4-2.2,0.5l-1.2-1.2
			c-0.3,0-0.7,0-1,0s-0.7,0-1,0l-1.2,1.2c-0.8-0.1-1.5-0.3-2.2-0.5l0.6-1.3c-0.3-0.1-0.5-0.2-0.8-0.4c-0.2-0.1-0.5-0.3-0.7-0.5
			l-2.3,0.3c-0.4-0.4-0.7-0.8-0.9-1.3l2-0.7c-0.1-0.4-0.1-0.8,0-1.2l-2-0.7c0.2-0.4,0.5-0.9,0.9-1.3l2.3,0.3
			c0.2-0.2,0.4-0.3,0.7-0.5s0.5-0.3,0.8-0.4L193,404C193.7,403.8,194.5,403.6,195.2,403.5L195.2,403.5L195.2,403.5z M197.6,410
			c0.7,0,1.4-0.1,1.9-0.5c1-0.6,1-1.6,0-2.2c-0.5-0.3-1.2-0.5-1.9-0.5s-1.4,0.1-1.9,0.5c-1,0.6-1,1.6,0,2.2
			C196.2,409.8,196.9,410,197.6,410L197.6,410z M195.2,402.2c-0.1,0-0.1,0-0.2,0c-0.9,0.1-1.7,0.3-2.4,0.6c-0.3,0.1-0.6,0.4-0.8,0.7
			c-0.1,0.3-0.1,0.7,0,1l0.1,0.2c0,0-0.1,0.1-0.1,0.1l-1.8-0.2c-0.1,0-0.1,0-0.2,0c-0.3,0-0.7,0.1-0.9,0.4c-0.5,0.5-0.9,1.1-1.2,1.7
			c-0.1,0.3-0.1,0.7,0,1c0.1,0.3,0.4,0.6,0.8,0.7l0.3,0.1l-0.3,0.1c-0.3,0.1-0.6,0.4-0.8,0.7s-0.1,0.7,0,1c0.3,0.6,0.7,1.2,1.2,1.7
			c0.2,0.2,0.6,0.4,0.9,0.4c0.1,0,0.1,0,0.2,0l1.8-0.2c0.1,0,0.1,0.1,0.1,0.1l-0.1,0.2c-0.1,0.3-0.1,0.7,0,1
			c0.1,0.3,0.4,0.6,0.8,0.7c0.8,0.3,1.6,0.5,2.4,0.6c0.1,0,0.1,0,0.2,0c0.3,0,0.6-0.1,0.9-0.4l0.8-0.8c0.2,0,0.4,0,0.6,0
			c0.2,0,0.4,0,0.5,0l0.9,0.8c0.2,0.2,0.6,0.4,0.9,0.4c0.1,0,0.1,0,0.2,0c0.9-0.1,1.7-0.3,2.4-0.6c0.3-0.1,0.6-0.4,0.8-0.7
			c0.1-0.3,0.1-0.7,0-1l-0.1-0.2c0,0,0.1-0.1,0.1-0.1l1.8,0.2c0.1,0,0.1,0,0.2,0c0.3,0,0.7-0.1,0.9-0.4c0.5-0.5,0.9-1.1,1.2-1.7
			c0.1-0.3,0.1-0.7,0-1c-0.1-0.3-0.4-0.6-0.8-0.7l-0.3-0.1l0.3-0.1c0.3-0.1,0.6-0.4,0.8-0.7s0.1-0.7,0-1c-0.3-0.6-0.7-1.1-1.2-1.7
			c-0.2-0.2-0.6-0.4-0.9-0.4c-0.1,0-0.1,0-0.2,0l-1.8,0.2c-0.1,0-0.1-0.1-0.1-0.1l0.1-0.2c0.1-0.3,0.1-0.7,0-1
			c-0.1-0.3-0.4-0.6-0.8-0.7c-0.8-0.3-1.6-0.5-2.4-0.6c-0.1,0-0.1,0-0.2,0c-0.3,0-0.6,0.1-0.9,0.4l-0.8,0.8c-0.2,0-0.4,0-0.6,0
			c-0.2,0-0.4,0-0.5,0l-0.9-0.8C195.9,402.3,195.6,402.2,195.2,402.2L195.2,402.2z M196.3,408.4c0.3-0.2,0.8-0.3,1.2-0.3
			s0.9,0.1,1.2,0.3c-0.3,0.2-0.8,0.3-1.2,0.3S196.6,408.6,196.3,408.4L196.3,408.4z"/>
		<path class="st20" d="M129.6,370.8l2.9,1.7l-5.3,3l-2.9-1.7L129.6,370.8L129.6,370.8L129.6,370.8z M137.3,371.4l2.9,1.7l-8.6,5
			l-2.9-1.7L137.3,371.4L137.3,371.4z M145.1,372l2.9,1.7l-11.9,6.9l-2.9-1.7L145.1,372L145.1,372z M129.6,369.5
			c-0.2,0-0.4,0.1-0.6,0.2l-5.3,3c-0.4,0.2-0.6,0.6-0.6,1.1s0.2,0.9,0.6,1.1l2.9,1.7c0.2,0.1,0.4,0.2,0.6,0.2c0.1,0,0.2,0,0.3,0
			c0.1,0.3,0.3,0.6,0.6,0.7l2.9,1.7c0.2,0.1,0.4,0.2,0.6,0.2c0.1,0,0.2,0,0.3,0c0.1,0.3,0.3,0.6,0.6,0.7l2.9,1.7
			c0.2,0.1,0.4,0.2,0.6,0.2s0.4-0.1,0.6-0.2l11.9-6.9c0.4-0.2,0.6-0.6,0.6-1.1s-0.2-0.9-0.6-1.1l-2.9-1.7c-0.2-0.1-0.4-0.2-0.6-0.2
			s-0.4,0.1-0.6,0.2l-3,1.7c-0.1-0.3-0.3-0.5-0.6-0.7l-2.9-1.7c-0.2-0.1-0.4-0.2-0.6-0.2s-0.4,0.1-0.6,0.2l-3,1.7
			c-0.1-0.3-0.3-0.5-0.6-0.7l-2.9-1.7C130,369.5,129.8,369.5,129.6,369.5L129.6,369.5L129.6,369.5z"/>
		<path class="st20" d="M166.4,385.5c1.2,0,2.4,0.3,3.2,0.8c1.2,0.7,1.6,1.8,1.1,2.7c0.4-0.1,0.9-0.1,1.4-0.1c1.2,0,2.4,0.3,3.2,0.8
			c1.8,1,1.8,2.7,0,3.7c-1.4,0.8-4.2,1-6.8,1c-3.4,0-6.6-0.4-6.6-0.4s-2.1-5.9,1.2-7.7C164.1,385.8,165.3,385.5,166.4,385.5
			L166.4,385.5L166.4,385.5z M166.4,384.3v1.3V384.3c-1.4,0-2.8,0.3-3.9,0.9c-4.1,2.4-1.8,9-1.7,9.3c0.2,0.5,0.6,0.8,1.1,0.8
			c0.1,0,3.3,0.4,6.8,0.4s6-0.4,7.4-1.2c1.2-0.7,2-1.8,2-3s-0.7-2.3-2-3c-1.1-0.6-2.4-0.9-3.8-1c-0.2-0.9-0.8-1.7-1.9-2.4
			C169.3,384.6,167.9,384.3,166.4,384.3L166.4,384.3z"/>
		<path class="st3" d="M223.8,394c-4.9,0-9.3-1-12.8-3l-30.2-17.5l-30.2-17.5c-4.1-2.4-6.5-6.1-6.5-10.1c0-4.6,3-8.9,8.2-11.9
			c4.4-2.5,10.2-4,15.9-4c4.9,0,9.3,1,12.7,3l30.2,17.5l30.2,17.5c4.1,2.4,6.5,6.1,6.5,10.1c0,4.6-3,8.9-8.2,11.9
			C235.3,392.6,229.5,394,223.8,394L223.8,394z"/>
		<path class="st3" d="M153.2,334.7L153.2,334.7c4.3-2.5,9.9-3.9,15.5-3.9c4.1,0,7.9,0.8,10.9,2.2c0.5,0.2,1,0.5,1.5,0.8l29.4,17
			l2.5,1.5l26.9,15.5c2.2,1.3,4.3,3.2,5.3,5.1c0.8,1.4,1.2,2.9,1.3,4.5c0.1,4.4-2.7,8.7-7.9,11.6l0,0c-4.3,2.5-9.9,3.9-15.5,3.9
			c-4.1,0-7.9-0.8-10.9-2.2c-0.5-0.2-1-0.5-1.5-0.8l-29.4-17l-2.5-1.5L152,356c-2.2-1.3-4.3-3.2-5.3-5.1c-0.8-1.4-1.2-2.9-1.3-4.5
			C145.3,342,148.1,337.7,153.2,334.7L153.2,334.7z"/>
		<path class="st3" d="M154.2,335.4L154.2,335.4c4.2-2.4,9.7-3.8,15.1-3.8c4,0,7.6,0.8,10.6,2.2c0.4,0.2,1,0.5,1.4,0.8l28.7,16.5
			l2.4,1.4l26.2,15.1c2,1.1,4.3,3.2,5.2,4.9c0.8,1.4,1.3,2.8,1.4,4.3c0.3,4.2-2.4,8.4-7.5,11.4l0,0c-4.2,2.4-9.7,3.8-15,3.8
			c-4,0-7.6-0.8-10.6-2.2c-0.4-0.2-1-0.5-1.4-0.8l-28.7-16.5l-2.4-1.4L153.4,356c-2-1.1-4.3-3.2-5.2-4.9c-0.8-1.4-1.3-2.8-1.4-4.3
			C146.5,342.5,149.2,338.3,154.2,335.4L154.2,335.4z"/>
		<path class="st3" d="M155.2,336.1L155.2,336.1c4.1-2.4,9.4-3.7,14.6-3.6c3.9,0,7.4,0.8,10.3,2.1c0.4,0.2,1,0.5,1.4,0.7l27.9,16.1
			l2.4,1.4l25.5,14.7c1.8,1,4.3,3.2,5.2,4.7c0.8,1.3,1.4,2.6,1.6,4.1c0.4,4.1-2.1,8.2-7.1,11.1l0,0c-4.1,2.4-9.4,3.7-14.6,3.7
			c-3.9,0-7.4-0.8-10.3-2.1c-0.4-0.2-1-0.5-1.4-0.7L182.7,372l-2.4-1.4l-25.5-14.7c-1.8-1-4.3-3.2-5.2-4.7c-0.8-1.3-1.4-2.6-1.6-4.1
			C147.7,343.1,150.2,339,155.2,336.1L155.2,336.1z"/>
		<path class="st3" d="M156.2,336.8L156.2,336.8c4-2.3,9.2-3.6,14.2-3.5c3.8,0,7.2,0.8,10,2.1c0.3,0.2,1,0.5,1.3,0.7l27.1,15.6
			l2.3,1.3l24.8,14.3c1.6,0.9,4.3,3.1,5.1,4.4s1.5,2.5,1.7,3.9c0.6,3.9-1.8,8-6.7,10.8l0,0c-4,2.3-9.2,3.6-14.2,3.5
			c-3.8,0-7.2-0.8-10-2.1c-0.3-0.2-1-0.5-1.3-0.7l-27.1-15.6l-2.3-1.3l-24.8-14.3c-1.6-0.9-4.3-3.1-5.1-4.4s-1.5-2.5-1.7-3.9
			C148.9,343.6,151.3,339.6,156.2,336.8z"/>
		<path class="st3" d="M157.1,337.5L157.1,337.5c3.9-2.2,8.9-3.5,13.8-3.4c3.6,0,7,0.8,9.7,2.1c0.3,0.1,1,0.5,1.3,0.7l26.3,15.2
			l2.2,1.3l24,13.9c1.3,0.8,4.4,3.1,5.1,4.2c0.8,1.2,1.6,2.4,1.8,3.7c0.8,3.8-1.5,7.7-6.3,10.5l0,0c-3.9,2.2-8.9,3.5-13.8,3.4
			c-3.6,0-7-0.8-9.7-2.1c-0.3-0.1-1-0.5-1.3-0.7L184,370.9l-2.2-1.3l-24-13.9c-1.3-0.8-4.4-3.1-5.1-4.2c-0.8-1.2-1.6-2.4-1.8-3.7
			C150.1,344.2,152.3,340.2,157.1,337.5L157.1,337.5z"/>
		<path class="st3" d="M158.1,338.1L158.1,338.1c3.8-2.2,8.7-3.3,13.4-3.3c3.5,0,6.8,0.8,9.4,2.1c0.2,0.1,1,0.5,1.2,0.7l25.5,14.7
			l2.2,1.3l23.3,13.5c1.1,0.6,4.4,3.1,5,3.9c0.8,1.2,1.6,2.2,1.9,3.4c0.9,3.6-1.2,7.5-5.9,10.2l0,0c-3.8,2.2-8.7,3.3-13.4,3.3
			c-3.5,0-6.8-0.8-9.4-2.1c-0.2-0.1-1-0.5-1.2-0.7l-25.5-14.7l-2.2-1.3l-23.3-13.5c-1.1-0.6-4.4-3.1-5-3.9c-0.8-1.2-1.6-2.2-1.9-3.4
			C151.2,344.7,153.3,340.9,158.1,338.1L158.1,338.1z"/>
		<path class="st3" d="M159.1,338.8L159.1,338.8c3.7-2.1,8.4-3.2,13-3.2c3.4,0,6.6,0.8,9.1,2c0.2,0.1,1,0.6,1.2,0.7l24.7,14.3
			l2.1,1.2l22.6,13c0.9,0.5,4.4,3,5,3.7c0.9,1.1,1.7,2.1,2.1,3.2c1.1,3.4-0.9,7.2-5.5,9.9l0,0c-3.7,2.1-8.4,3.2-13,3.2
			c-3.4,0-6.6-0.8-9.1-2c-0.2-0.1-1-0.6-1.2-0.7l-24.7-14.3l-2.1-1.2l-22.6-13c-0.9-0.5-4.4-3-5-3.7c-0.9-1.1-1.7-2.1-2.1-3.2
			C152.5,345.3,154.4,341.5,159.1,338.8L159.1,338.8z"/>
		<path class="st3" d="M160,339.5L160,339.5c3.6-2,8.2-3.1,12.6-3.1c3.3,0,6.4,0.8,8.8,2c0.1,0.1,1,0.6,1.1,0.6l23.9,13.8l2.1,1.2
			l21.9,12.6c0.7,0.4,4.6,2.9,4.9,3.5c1.1,0.9,1.8,1.9,2.2,3c1.2,3.3-0.6,7-5.1,9.6l0,0c-3.6,2-8.2,3.1-12.6,3.1
			c-3.3,0-6.4-0.8-8.8-2c-0.1-0.1-1-0.6-1.1-0.6l-23.9-13.8l-2.1-1.2L162,355.6c-0.7-0.4-4.6-2.9-4.9-3.5c-1.1-0.9-1.8-1.9-2.2-3
			C153.6,345.9,155.4,342.1,160,339.5L160,339.5z"/>
		<path class="st3" d="M161,340.2L161,340.2c3.4-2,7.9-3,12.1-3c3.2,0,6.1,0.8,8.5,2c0.1,0,1,0.6,1.1,0.6l23.1,13.4l2,1.1l21.1,12.2
			c0.4,0.3,4.6,2.8,4.9,3.2c1.1,0.8,1.9,1.8,2.3,2.8c1.4,3.1-0.2,6.7-4.7,9.3l0,0c-3.4,2-7.9,3-12.1,3c-3.2,0-6.1-0.8-8.5-2
			c-0.1,0-1-0.6-1.1-0.6l-23.1-13.4l-2-1.1l-21.1-12.2c-0.4-0.3-4.6-2.8-4.9-3.2c-1.1-0.8-1.9-1.8-2.3-2.8
			C154.8,346.4,156.5,342.8,161,340.2L161,340.2z"/>
		<path class="st3" d="M162,340.9L162,340.9c3.3-1.9,7.7-2.9,11.7-2.8c3.1,0,5.9,0.8,8.2,1.9c0.1,0,1,0.6,1.1,0.6l22.3,12.9l1.9,1.1
			l20.4,11.8c0.2,0.1,4.7,2.8,4.8,3c1.1,0.8,1.9,1.6,2.5,2.6c1.6,2.9,0.1,6.5-4.4,9l0,0c-3.3,1.9-7.7,2.9-11.7,2.8
			c-3.1,0-5.9-0.8-8.2-1.9c-0.1,0-1-0.6-1.1-0.6l-22.3-12.9l-1.9-1.1l-20.4-11.8c-0.2-0.1-4.7-2.8-4.8-3c-1.1-0.8-1.9-1.6-2.5-2.6
			C156,347,157.6,343.4,162,340.9L162,340.9z"/>
		<path class="st3" d="M210.4,380.8L186,366.8l-24.4-14.1c-4.9-2.8-4.3-7.8,1.4-11.1l0,0c5.7-3.3,14.3-3.6,19.2-0.8l24.4,14.1
			l24.4,14.1c4.9,2.8,4.3,7.8-1.4,11.1l0,0C223.9,383.3,215.3,383.7,210.4,380.8z"/>
		
			<linearGradient id="SVGID_00000183969739861444352390000017119465065814543512_" gradientUnits="userSpaceOnUse" x1="147.8292" y1="251.9485" x2="240.3992" y2="201.0585" gradientTransform="matrix(1 0 0 -1 0 579.89)">
			<stop  offset="4.000000e-02" style="stop-color:#FFA98C"/>
			<stop  offset="0.16" style="stop-color:#F79990"/>
			<stop  offset="0.41" style="stop-color:#E3719C"/>
			<stop  offset="0.75" style="stop-color:#C430AE"/>
			<stop  offset="0.98" style="stop-color:#AD00BD"/>
		</linearGradient>
		<path style="fill:url(#SVGID_00000183969739861444352390000017119465065814543512_);" d="M213.5,379.2L153,344.3
			c-6.1-3.5-5.3-9.7,1.7-13.8l0,0c7.1-4.1,17.7-4.5,23.8-1l60.5,34.9c6.1,3.5,5.3,9.7-1.7,13.8l0,0
			C230.2,382.3,219.6,382.8,213.5,379.2z"/>
		
			<radialGradient id="SVGID_00000051363178006197361280000007057972864142538938_" cx="204.4" cy="218.12" r="36.78" gradientTransform="matrix(1 0 0 -1 0 579.89)" gradientUnits="userSpaceOnUse">
			<stop  offset="0" style="stop-color:#FFFFFF"/>
			<stop  offset="1" style="stop-color:#000000"/>
		</radialGradient>
		<path style="fill:url(#SVGID_00000051363178006197361280000007057972864142538938_);" d="M237.3,376.7L237.3,376.7
			c-7.1,4.1-17.7,4.5-23.8,1L153,342.7c-2.4-1.4-3.8-3.2-4.1-5.2c-0.4,2.5,0.9,5,4.1,6.8l60.5,34.9c6.1,3.5,16.8,3.1,23.8-1l0,0
			c4.2-2.4,6.2-5.6,5.8-8.5C242.7,372.2,240.7,374.7,237.3,376.7z"/>
		
			<image style="overflow:visible;enable-background:new    ;" width="504" height="308" xlink:href="B0651B16.png"  transform="matrix(0.1003 0 0 0.1003 168.6682 336.69)">
		</image>
		<g class="st23">
			<path class="st24" d="M166.7,237.6c-0.4,0-0.8-0.4-0.8-0.8v-3.2c0-0.4,0.4-0.8,0.8-0.8s0.8,0.4,0.8,0.8v3.2
				C167.5,237.3,167.1,237.6,166.7,237.6z M166.7,231.2c-0.4,0-0.8-0.4-0.8-0.8v-3.2c0-0.4,0.4-0.8,0.8-0.8s0.8,0.4,0.8,0.8v3.2
				C167.5,230.9,167.1,231.2,166.7,231.2z M166.7,224.8c-0.4,0-0.8-0.4-0.8-0.8v-3.2c0-0.4,0.4-0.8,0.8-0.8s0.8,0.4,0.8,0.8v3.2
				C167.5,224.5,167.1,224.8,166.7,224.8z M166.7,218.4c-0.4,0-0.8-0.4-0.8-0.8v-3.2c0-0.4,0.4-0.8,0.8-0.8s0.8,0.4,0.8,0.8v3.2
				C167.5,218.1,167.1,218.4,166.7,218.4z M166.7,212c-0.4,0-0.8-0.4-0.8-0.8V208c0-0.4,0.4-0.8,0.8-0.8s0.8,0.4,0.8,0.8v3.2
				C167.5,211.6,167.1,212,166.7,212z M166.7,205.6c-0.4,0-0.8-0.4-0.8-0.8v-3.2c0-0.4,0.4-0.8,0.8-0.8s0.8,0.4,0.8,0.8v3.2
				C167.5,205.2,167.1,205.6,166.7,205.6z M166.7,199.2c-0.4,0-0.8-0.4-0.8-0.8v-3.2c0-0.4,0.4-0.8,0.8-0.8s0.8,0.4,0.8,0.8v3.2
				C167.5,198.8,167.1,199.2,166.7,199.2z M166.7,192.8c-0.4,0-0.8-0.4-0.8-0.8v-3.2c0-0.4,0.4-0.8,0.8-0.8s0.8,0.4,0.8,0.8v3.2
				C167.5,192.4,167.1,192.8,166.7,192.8z M166.7,186.4c-0.4,0-0.8-0.4-0.8-0.8v-3.2c0-0.4,0.4-0.8,0.8-0.8s0.8,0.4,0.8,0.8v3.2
				C167.5,186,167.1,186.4,166.7,186.4z M166.7,180c-0.4,0-0.8-0.4-0.8-0.8v-3.2c0-0.4,0.4-0.8,0.8-0.8s0.8,0.4,0.8,0.8v3.2
				C167.5,179.6,167.1,180,166.7,180z M166.7,173.5c-0.4,0-0.8-0.4-0.8-0.8v-3.2c0-0.4,0.4-0.8,0.8-0.8s0.8,0.4,0.8,0.8v3.2
				C167.5,173.2,167.1,173.5,166.7,173.5z M166.7,167.1c-0.4,0-0.8-0.4-0.8-0.8v-3.2c0-0.4,0.4-0.8,0.8-0.8s0.8,0.4,0.8,0.8v3.2
				C167.5,166.8,167.1,167.1,166.7,167.1z M166.7,160.7c-0.4,0-0.8-0.4-0.8-0.8v-3.2c0-0.4,0.4-0.8,0.8-0.8s0.8,0.4,0.8,0.8v3.2
				C167.5,160.4,167.1,160.7,166.7,160.7z M166.7,154.3c-0.4,0-0.8-0.4-0.8-0.8v-3.2c0-0.4,0.4-0.8,0.8-0.8s0.8,0.4,0.8,0.8v3.2
				C167.5,154,167.1,154.3,166.7,154.3z"/>
		</g>
		<path class="st20" d="M363.5,194.5l16.1,9.3c0.7,0.4,1.7,0.4,2.4,0c0.7-0.4,0.7-1,0-1.4l-16.1-9.3c-0.7-0.4-1.7-0.4-2.4,0
			C362.8,193.5,362.8,194.1,363.5,194.5L363.5,194.5z M378,204.8l-16.1-9.3c-0.7-0.4-1.7-0.4-2.4,0c-0.7,0.4-0.7,1,0,1.4l16.1,9.3
			c0.7,0.4,1.7,0.4,2.4,0C378.6,205.8,378.6,205.2,378,204.8L378,204.8z M373.9,207.1l-16.1-9.3c-0.7-0.4-1.7-0.4-2.4,0
			c-0.7,0.4-0.7,1,0,1.4l16.1,9.3c0.7,0.4,1.7,0.4,2.4,0C374.6,208.1,374.6,207.5,373.9,207.1L373.9,207.1z"/>
		<polygon class="st3" points="296.2,391.9 179.2,324.3 403.8,193.9 520.8,261.5 		"/>
		<polygon class="st3" points="296.7,390.4 181.3,323.8 403.1,195 518.5,261.7 		"/>
		<polygon class="st3" points="297.1,389 183.3,323.3 402.5,196.1 516.2,261.8 		"/>
		<polygon class="st3" points="297.6,387.5 185.4,322.8 401.8,197.2 513.9,261.9 		"/>
		<polygon class="st3" points="298,386.1 187.5,322.3 401.1,198.3 511.6,262.1 		"/>
		<polygon class="st3" points="298.5,384.6 189.6,321.8 400.4,199.4 509.3,262.2 		"/>
		<polygon class="st3" points="298.9,383.2 191.7,321.2 399.8,200.4 507,262.4 		"/>
		<polygon class="st3" points="299.4,381.7 193.7,320.8 399.1,201.5 504.7,262.5 		"/>
		<polygon class="st3" points="299.8,380.3 195.8,320.2 398.4,202.6 502.4,262.6 		"/>
		<polygon class="st3" points="300.2,378.8 197.9,319.7 397.8,203.7 500.1,262.8 		"/>
		<polygon class="st3" points="300.7,377.4 200,319.2 397.1,204.8 497.8,262.9 		"/>
		<polygon class="st3" points="301.1,375.9 202.1,318.7 396.4,205.9 495.5,263 		"/>
		
			<linearGradient id="SVGID_00000011715759444221329030000000671185094728170156_" gradientUnits="userSpaceOnUse" x1="-4236.6987" y1="-1544.7318" x2="-4105.6006" y2="-1544.7318" gradientTransform="matrix(0.866 0.5 1 -0.5774 5507.0215 1470.4225)">
			<stop  offset="0" style="stop-color:#25054D"/>
			<stop  offset="1" style="stop-color:#45108A"/>
		</linearGradient>
		<polygon style="fill:url(#SVGID_00000011715759444221329030000000671185094728170156_);" points="297.7,372.6 184.8,307.3 
			402.5,181 515.4,246.2 		"/>
		
			<linearGradient id="SVGID_00000129925434111757496850000013559766770931376564_" gradientUnits="userSpaceOnUse" x1="-4236.6987" y1="-1445.8564" x2="-4063.6389" y2="-1445.8564" gradientTransform="matrix(0.866 0.5 1 -0.5774 5507.0215 1470.4225)">
			<stop  offset="4.000000e-02" style="stop-color:#9F19AB"/>
			<stop  offset="0.24" style="stop-color:#AE24B0"/>
			<stop  offset="0.65" style="stop-color:#D643BF"/>
			<stop  offset="1" style="stop-color:#FF63CE"/>
		</linearGradient>
		<polygon style="fill:url(#SVGID_00000129925434111757496850000013559766770931376564_);" points="489.9,261.1 377,195.9 
			407.6,178 520.6,243.2 		"/>
		
			<linearGradient id="SVGID_00000063619838372263601700000014496951851900949417_" gradientUnits="userSpaceOnUse" x1="-6205.583" y1="-1628.9855" x2="-6154.481" y2="-1628.9855" gradientTransform="matrix(0.866 0.5 1.5001 -0.2886 8087.5522 2960.0969)">
			<stop  offset="4.000000e-02" style="stop-color:#9F19AB"/>
			<stop  offset="0.24" style="stop-color:#AE24B0"/>
			<stop  offset="0.65" style="stop-color:#D643BF"/>
			<stop  offset="1" style="stop-color:#FF63CE"/>
		</linearGradient>
		<path style="fill:url(#SVGID_00000063619838372263601700000014496951851900949417_);" d="M301.5,353.2L270.1,335
			c-3-1.8-2.7-4.8,0.9-6.9l0,0c3.5-2,8.9-2.3,11.9-0.5l31.5,18.2c3,1.8,2.7,4.8-0.9,6.9l0,0C309.9,354.8,304.6,355,301.5,353.2z"/>
		
			<linearGradient id="SVGID_00000006706865046993685070000011628928830897447852_" gradientUnits="userSpaceOnUse" x1="-4226.3486" y1="-1628.826" x2="-4177.2441" y2="-1628.826" gradientTransform="matrix(0.866 0.5 1 -0.5774 5507.0215 1470.4225)">
			<stop  offset="4.000000e-02" style="stop-color:#9F19AB"/>
			<stop  offset="0.24" style="stop-color:#AE24B0"/>
			<stop  offset="0.65" style="stop-color:#D643BF"/>
			<stop  offset="1" style="stop-color:#FF63CE"/>
		</linearGradient>
		<path style="fill:url(#SVGID_00000006706865046993685070000011628928830897447852_);" d="M259.7,315.5c3,1.7,3,4.5,0,6.2
			c-3,1.7-7.8,1.7-10.8,0l-29.7-17.1c-3-1.7-3-4.5,0-6.2c2.9-1.7,7.8-1.7,10.8,0L259.7,315.5L259.7,315.5z M260.7,314.9L231,297.8
			c-3.6-2-9.3-2.1-12.8,0s-3.5,5.4,0,7.4l29.7,17.1c3.6,2,9.3,2.1,12.8,0S264.3,316.9,260.7,314.9L260.7,314.9z"/>
		<path class="st24" d="M391.2,224.4L373,235l-18.6-10.8l18.3-10.6L391.2,224.4L391.2,224.4L391.2,224.4z M394.3,224.4l-21.7-12.5
			l-21.4,12.3l21.7,12.5L394.3,224.4L394.3,224.4z"/>
		<polygon class="st24" points="431.7,252.8 394.6,231.4 396.1,230.5 433.2,251.9 		"/>
		<polygon class="st24" points="339.7,343.5 234,282.5 234.5,282.2 340.2,343.2 		"/>
		<polygon class="st24" points="427.4,255.3 390.3,233.9 391.8,233 428.9,254.4 		"/>
		<polygon class="st24" points="410.9,250.8 385.9,236.4 387.4,235.5 412.4,249.9 		"/>
		<path class="st24" d="M352.4,246.8l-18.3,10.6l-18.6-10.8l18.3-10.6L352.4,246.8L352.4,246.8L352.4,246.8z M355.5,246.8
			l-21.7-12.5l-21.4,12.3l21.7,12.5L355.5,246.8L355.5,246.8z"/>
		<polygon class="st24" points="392.8,275.2 355.8,253.8 357.3,252.9 394.3,274.3 		"/>
		<polygon class="st24" points="388.5,277.7 351.5,256.3 353,255.4 390,276.8 		"/>
		<polygon class="st24" points="372,273.2 347.1,258.8 348.6,258 373.5,272.3 		"/>
		<path class="st24" d="M313.5,269.3l-18.3,10.5l-18.6-10.8l18.3-10.5L313.5,269.3L313.5,269.3L313.5,269.3z M316.6,269.3
			l-21.7-12.5l-21.4,12.3l21.7,12.5L316.6,269.3L316.6,269.3z"/>
		<polygon class="st24" points="353.9,297.7 316.8,276.3 318.3,275.4 355.4,296.8 		"/>
		<polygon class="st24" points="349.6,300.2 312.5,278.8 314,277.9 351.1,299.3 		"/>
		<polygon class="st24" points="333.1,295.7 308.2,281.3 309.7,280.4 334.6,294.8 		"/>
		<path class="st24" d="M450.3,270.4c-2.6-1.5-2.6-3.9,0-5.4s6.7-1.5,9.3,0c2.6,1.5,2.6,3.9,0,5.4S452.9,271.8,450.3,270.4z
			 M458.9,265.4c-2.2-1.3-5.8-1.3-7.9,0c-2.2,1.3-2.2,3.3,0,4.6c2.2,1.3,5.8,1.3,7.9,0C461.1,268.7,461.1,266.7,458.9,265.4z"/>
		<path class="st24" d="M455.9,268.2h1.3c0.5,0,0.9-0.2,0.9-0.5s-0.4-0.5-0.9-0.5h-1.3v-0.8c0-0.3-0.4-0.5-0.9-0.5s-0.9,0.2-0.9,0.5
			v0.8h-1.3c-0.5,0-0.9,0.2-0.9,0.5c0,0.1,0.1,0.3,0.3,0.4s0.4,0.2,0.7,0.2h1.3v0.8c0,0.1,0.1,0.3,0.3,0.4s0.4,0.2,0.7,0.2
			c0.5,0,0.9-0.2,0.9-0.5L455.9,268.2L455.9,268.2z"/>
		<path class="st24" d="M412,292.5c-2.6-1.5-2.6-3.9,0-5.4s6.7-1.5,9.3,0c2.6,1.5,2.6,3.9,0,5.4S414.5,294,412,292.5z M420.5,287.5
			c-2.2-1.3-5.8-1.3-7.9,0c-2.2,1.3-2.2,3.3,0,4.6s5.8,1.3,7.9,0C422.7,290.9,422.7,288.8,420.5,287.5z"/>
		<path class="st24" d="M417.5,290.4h1.3c0.5,0,0.9-0.2,0.9-0.5c0-0.3-0.4-0.5-0.9-0.5h-1.3v-0.8c0-0.3-0.4-0.5-0.9-0.5
			s-0.9,0.2-0.9,0.5v0.8h-1.3c-0.5,0-0.9,0.2-0.9,0.5c0,0.1,0.1,0.3,0.3,0.4s0.4,0.2,0.7,0.2h1.3v0.8c0,0.1,0.1,0.3,0.3,0.4
			s0.4,0.2,0.7,0.2c0.5,0,0.9-0.2,0.9-0.5L417.5,290.4L417.5,290.4z"/>
		<path class="st24" d="M372.7,315.2c-2.6-1.5-2.6-3.9,0-5.4s6.7-1.5,9.3,0c2.6,1.5,2.6,3.9,0,5.4S375.3,316.6,372.7,315.2z
			 M381.3,310.2c-2.2-1.3-5.8-1.3-7.9,0c-2.2,1.3-2.2,3.3,0,4.6c2.2,1.3,5.8,1.3,8,0C383.5,313.5,383.5,311.5,381.3,310.2z"/>
		<path class="st24" d="M378.3,313h1.3c0.5,0,0.9-0.2,0.9-0.5s-0.4-0.5-0.9-0.5h-1.3v-0.8c0-0.3-0.4-0.5-0.9-0.5s-0.9,0.2-0.9,0.5
			v0.8h-1.3c-0.5,0-0.9,0.2-0.9,0.5c0,0.1,0.1,0.3,0.3,0.4s0.4,0.2,0.7,0.2h1.3v0.8c0,0.1,0.1,0.3,0.3,0.4s0.4,0.2,0.7,0.2
			c0.5,0,0.9-0.2,0.9-0.5L378.3,313L378.3,313z"/>
		<path class="st29" d="M493.3,245.4h5.6c0.5,0,0.9-0.2,0.9-0.5s-0.4-0.5-0.9-0.5h-5.6l0-3.2c0-0.3-0.4-0.5-0.9-0.5
			c-0.5,0-0.9,0.2-0.9,0.5l0,3.2H486c-0.5,0-0.9,0.2-0.9,0.5c0,0.1,0.1,0.3,0.3,0.4s0.4,0.1,0.6,0.1h5.6l0,3.2
			c0,0.1,0.1,0.3,0.3,0.4s0.4,0.1,0.6,0.1c0.5,0,0.9-0.2,0.9-0.5L493.3,245.4z"/>
		
			<radialGradient id="SVGID_00000083806805152038174800000004078977085095945407_" cx="380.97" cy="287.21" r="128.06" gradientTransform="matrix(1 0 0 -1 0 579.89)" gradientUnits="userSpaceOnUse">
			<stop  offset="0" style="stop-color:#FFFFFF"/>
			<stop  offset="1" style="stop-color:#000000"/>
		</radialGradient>
		<polygon style="fill:url(#SVGID_00000083806805152038174800000004078977085095945407_);" points="297.7,371.4 186.5,306.3 
			184.8,307.3 297.7,372.6 520.3,243.3 518.6,243.1 		"/>
		<polygon class="st3" points="402.9,304.5 283.4,235.5 330.9,208.3 450.4,277.2 		"/>
		<polygon class="st3" points="402.5,303.5 284.9,235.5 331.2,209 448.8,276.9 		"/>
		<polygon class="st3" points="402.2,302.4 286.4,235.6 331.5,209.7 447.2,276.5 		"/>
		<polygon class="st3" points="401.9,301.4 287.9,235.6 331.8,210.4 445.7,276.2 		"/>
		<polygon class="st3" points="401.5,300.3 289.4,235.6 332,211.1 444.1,275.8 		"/>
		<polygon class="st3" points="401.2,299.3 290.9,235.6 332.3,211.8 442.5,275.5 		"/>
		<polygon class="st3" points="400.8,298.2 292.4,235.6 332.6,212.5 441,275.1 		"/>
		<polygon class="st3" points="400.5,297.2 293.9,235.7 332.9,213.2 439.4,274.7 		"/>
		<polygon class="st3" points="400.1,296.1 295.4,235.7 333.2,213.9 437.9,274.4 		"/>
		<polygon class="st3" points="399.8,295.1 296.9,235.7 333.5,214.6 436.3,274 		"/>
		<polygon class="st3" points="399.4,294 298.4,235.7 333.8,215.3 434.7,273.6 		"/>
		<polygon class="st3" points="399.1,293 300,235.7 334,216.1 433.1,273.3 		"/>
		
			<linearGradient id="SVGID_00000092439781938427349080000004352123935964463758_" gradientUnits="userSpaceOnUse" x1="-4276.0688" y1="-1516.0791" x2="-4147.644" y2="-1516.0791" gradientTransform="matrix(0.866 0.5 1 -0.5774 5531.3516 1480.7025)">
			<stop  offset="4.000000e-02" style="stop-color:#6B24D6"/>
			<stop  offset="0.29" style="stop-color:#7733DC"/>
			<stop  offset="0.79" style="stop-color:#965BEC"/>
			<stop  offset="1" style="stop-color:#A56EF4"/>
		</linearGradient>
		<polygon style="fill:url(#SVGID_00000092439781938427349080000004352123935964463758_);" points="404.3,293.3 293.1,229.1 
			331.4,207 442.6,271.2 		"/>
		<path class="st20" d="M351.8,231.4l-18,10.4l-18.3-10.6l18-10.4L351.8,231.4L351.8,231.4z M354.8,231.4l-21.4-12.3l-21,12.1
			l21.4,12.3L354.8,231.4L354.8,231.4z"/>
		<polygon class="st20" points="391.6,259.4 355.1,238.3 356.6,237.5 393.1,258.5 		"/>
		<polygon class="st20" points="387.4,261.8 350.9,240.8 352.4,239.9 388.9,261 		"/>
		<polygon class="st20" points="371.1,257.4 346.6,243.2 348.1,242.4 372.6,256.6 		"/>
		<g>
			<path class="st20" d="M410.5,276.4c-2.5-1.5-2.5-3.8,0-5.3c2.5-1.5,6.6-1.4,9.1,0c2.5,1.5,2.5,3.8,0,5.3
				C417.1,277.9,413,277.9,410.5,276.4z M418.9,271.5c-2.2-1.2-5.7-1.3-7.8,0c-2.1,1.2-2.1,3.3,0,4.5s5.7,1.3,7.8,0
				C421.1,274.8,421.1,272.8,418.9,271.5z"/>
			<path class="st20" d="M415.9,274.3h1.3c0.5,0,0.9-0.2,0.9-0.5c0-0.3-0.4-0.5-0.9-0.5h-1.3v-0.8c0-0.3-0.4-0.5-0.9-0.5
				c-0.5,0-0.9,0.2-0.9,0.5v0.8h-1.3c-0.5,0-0.9,0.2-0.9,0.5c0,0.1,0.1,0.3,0.3,0.4c0.2,0.1,0.4,0.2,0.6,0.2h1.3v0.8
				c0,0.1,0.1,0.3,0.3,0.4c0.2,0.1,0.4,0.2,0.6,0.2c0.5,0,0.9-0.2,0.9-0.5L415.9,274.3L415.9,274.3z"/>
		</g>
		<g>
			<path class="st24" d="M380,160.6l-65.8,38l-74.6-43.1l65.8-38L380,160.6L380,160.6L380,160.6z M383.3,160.6l-77.9-45l-69.1,39.9
				l77.9,45L383.3,160.6L383.3,160.6z"/>
			<path class="st24" d="M244.4,173.3l-19.1,11L198,168.5l19.1-11L244.4,173.3L244.4,173.3z M247.8,173.3L217,155.6l-22.3,12.9
				l30.7,17.7L247.8,173.3L247.8,173.3z"/>
			<path class="st24" d="M277.6,192.4l-19,11l-27.4-15.8l19.1-11L277.6,192.4L277.6,192.4L277.6,192.4z M280.9,192.4l-30.7-17.7
				l-22.3,12.9l30.7,17.7L280.9,192.4L280.9,192.4z"/>
			<path class="st24" d="M310.7,211.6l-19,11l-27.4-15.8l19-11L310.7,211.6L310.7,211.6L310.7,211.6z M314,211.6l-30.7-17.7
				L261,206.7l30.7,17.7L314,211.6L314,211.6z"/>
			<polygon class="st24" points="272.8,235.1 176.1,179.3 179.1,177.5 275.8,233.3 			"/>
			<polygon class="st24" points="264.1,240.1 167.4,184.2 170.4,182.5 267.1,238.3 			"/>
			<polygon class="st24" points="209.4,218.7 158.6,189.3 161.6,187.6 212.4,216.9 			"/>
			<path class="st24" d="M163.6,296.6c0.2-0.1,0.4-0.3,0.6-0.4l2.1,0.3c0.4-0.4,0.6-0.8,0.8-1.1l-1.8-0.6c0.1-0.4,0.1-0.7,0-1.1
				l1.8-0.6c-0.2-0.4-0.5-0.8-0.8-1.1l-2.1,0.3c-0.2-0.1-0.4-0.3-0.6-0.4s-0.5-0.2-0.7-0.3l0.5-1.2c-0.6-0.2-1.3-0.4-2-0.5l-1.1,1
				c-0.6,0-1.2-0.1-1.8,0l-1.1-1c-0.7,0.1-1.4,0.3-2,0.5l0.5,1.2c-0.2,0.1-0.5,0.2-0.7,0.3s-0.4,0.3-0.6,0.4l-2.1-0.3
				c-0.4,0.4-0.6,0.8-0.8,1.1l1.8,0.6c-0.1,0.4-0.1,0.7,0,1.1l-1.8,0.6c0.2,0.4,0.5,0.8,0.8,1.1l2.1-0.3c0.2,0.1,0.4,0.3,0.6,0.4
				s0.5,0.2,0.7,0.3l-0.5,1.2c0.6,0.2,1.3,0.4,2,0.5l1.1-1c0.6,0.1,1.2,0.1,1.8,0l1.1,1c0.7-0.1,1.4-0.3,2-0.5l-0.5-1.2
				C163.1,296.9,163.3,296.8,163.6,296.6z M157.6,295.2c-0.9-0.5-0.9-1.4,0-2c0.9-0.5,2.4-0.5,3.4,0s0.9,1.4,0,2
				C160.1,295.7,158.6,295.7,157.6,295.2z"/>
			<path class="st24" d="M320.4,83l16.2,9.3c0.7,0.4,1.8,0.4,2.4,0c0.7-0.4,0.7-1,0-1.4l-16.2-9.3c-0.7-0.4-1.8-0.4-2.4,0
				C319.8,82,319.8,82.6,320.4,83z M334.9,93.3L318.8,84c-0.7-0.4-1.8-0.4-2.4,0c-0.7,0.4-0.7,1,0,1.4l16.2,9.3
				c0.7,0.4,1.8,0.4,2.4,0C335.6,94.3,335.6,93.7,334.9,93.3z M330.9,95.6l-16.2-9.3c-0.7-0.4-1.8-0.4-2.4,0c-0.7,0.4-0.7,1,0,1.4
				l16.2,9.3c0.7,0.4,1.8,0.4,2.4,0C331.6,96.6,331.6,96,330.9,95.6z"/>
			<path class="st24" d="M153.1,315.2L37.6,248.5c-7.6-4.4-7.6-11.5-0.1-15.9l272-157c7.6-4.4,19.9-4.3,27.5,0.1l115.5,66.7
				c7.6,4.4,7.6,11.5,0.1,15.9l-272,157C173,319.6,160.7,319.6,153.1,315.2L153.1,315.2z M335.9,76.3c-7-4-18.4-4.1-25.3-0.1
				l-272,157c-7,4-6.9,10.6,0.1,14.6l115.5,66.7c7,4,18.4,4.1,25.3,0l272-157c7-4,6.9-10.6-0.1-14.6L335.9,76.3L335.9,76.3z"/>
			<path class="st24" d="M430.9,150.3c0,0.5-0.7,0.9-1.5,0.9s-1.6-0.4-1.6-0.9c0-0.5,0.7-0.9,1.5-0.9S430.9,149.8,430.9,150.3z"/>
			<path class="st24" d="M428.5,143.1c-0.1,0-0.2,0-0.3,0v0.9c0.1,0,0.2,0,0.3,0c6.4,0,11.7,3,11.7,6.8c0,0,0,0,0,0h1.6c0,0,0,0,0,0
				C441.8,146.5,435.8,143.1,428.5,143.1L428.5,143.1z"/>
			<path class="st24" d="M428.6,146.7c-0.1,0-0.2,0-0.3,0v0.9c0.1,0,0.2,0,0.3,0c3,0,5.5,1.4,5.5,3.1c0,0,0,0,0,0h1.6c0,0,0,0,0,0
				C435.6,148.5,432.4,146.7,428.6,146.7L428.6,146.7z"/>
			<path class="st24" d="M428.5,144.9c-0.1,0-0.2,0-0.3,0v0.9c0.1,0,0.2,0,0.3,0c4.7,0,8.6,2.2,8.6,5c0,0,0,0,0,0h1.6c0,0,0,0,0,0
				C438.7,147.5,434.1,144.9,428.5,144.9L428.5,144.9z"/>
			<polygon class="st24" points="398.5,133.7 351.9,106.8 354.9,105.1 401.5,132 			"/>
			<path class="st24" d="M180.2,259.4l-45.9-26.5c-5.9-3.4-6-9-0.1-12.4c5.9-3.4,15.5-3.4,21.4,0l45.9,26.5c5.9,3.4,6,9,0.1,12.4
				C195.7,262.8,186.1,262.8,180.2,259.4z M154,221.5c-5-2.9-13.2-2.9-18.1,0c-5,2.9-5,7.6,0.1,10.5l45.9,26.5
				c5,2.9,13.2,2.9,18.1,0c5-2.9,5-7.6-0.1-10.5L154,221.5z"/>
			<path class="st24" d="M347.9,189.3c-0.3-0.2-0.5-0.4-0.5-0.6c0-0.5,0.7-0.9,1.5-0.9l12.5,0l0-7.2c0-0.5,0.7-0.9,1.5-0.9
				s1.6,0.4,1.6,0.9l0,9l-15.6,0C348.5,189.5,348.1,189.4,347.9,189.3L347.9,189.3z"/>
			<path class="st24" d="M255.4,135.9c-0.3-0.2-0.5-0.4-0.5-0.6l-0.1-9l15.6,0c0.9,0,1.6,0.4,1.6,0.9s-0.7,0.9-1.5,0.9l-12.5,0
				l0,7.2c0,0.5-0.7,0.9-1.5,0.9C256,136.2,255.6,136.1,255.4,135.9L255.4,135.9z"/>
			<path class="st24" d="M82.7,243.4c0.8,0,1.7,0.2,2.6,0.7c2,1.2,1.4,2.2-0.1,3.1c0.2,0.2,0.1,0.5-0.3,0.7
				c-0.2,0.1-0.4,0.1-0.6,0.1c-0.3,0-0.5-0.1-0.7-0.1c-0.7,0.2-1.4,0.2-2.1,0.2c-0.5,0-1,0.2-1,0.6c0,0.5,0.3,1,0.8,1.5
				c0.7,0.6,0.5,1.4-0.4,1.9l-1.6,0.9c-0.2,0.1-0.3,0.1-0.6,0.1s-0.4,0-0.6-0.1l-8.4-4.9c-0.3-0.2-0.3-0.5,0-0.6l1.6-0.9
				c0.5-0.3,1.2-0.5,1.9-0.5c0.5,0,1,0.1,1.4,0.2c0.8,0.3,1.7,0.4,2.6,0.4h0c0.5,0,0.9-0.3,0.9-0.6c0-0.4,0.1-0.8,0.4-1.2
				c-0.2-0.2-0.3-0.6,0-0.8c0.2-0.1,0.6-0.2,0.8-0.2c0.1,0,0.2,0,0.3,0C80.7,243.7,81.6,243.4,82.7,243.4L82.7,243.4L82.7,243.4z
				 M82.7,242.3L82.7,242.3c-1,0-2,0.2-3,0.7c-0.1,0-0.1,0-0.1,0c-0.5,0-1,0.1-1.4,0.4c-0.4,0.2-0.7,0.7-0.8,1.1c0,0.2,0,0.4,0,0.6
				c-0.1,0.2-0.2,0.4-0.2,0.7c-0.7,0-1.4-0.1-2.1-0.4c-0.6-0.2-1.2-0.3-1.8-0.3c-0.9,0-1.8,0.2-2.5,0.6l-1.6,0.9
				c-0.5,0.3-0.8,0.8-0.8,1.3s0.3,1,0.8,1.3l8.4,4.9c0.3,0.2,0.7,0.3,1.1,0.3s0.8-0.1,1.1-0.3l1.6-0.9c0.8-0.4,1.3-1.1,1.3-1.9
				c0.1-0.7-0.2-1.4-0.8-1.9c0,0-0.1-0.1-0.1-0.1c0.6,0,1.1-0.1,1.6-0.2c0.2,0.1,0.5,0.1,0.7,0.1c0.5,0,0.9-0.1,1.2-0.3
				c0.5-0.3,0.8-0.6,0.9-1.1c0.6-0.4,1.3-1.2,1.3-2.2c0-0.9-0.6-1.8-1.8-2.4C84.9,242.6,83.8,242.3,82.7,242.3L82.7,242.3
				L82.7,242.3z"/>
			<path class="st24" d="M99.1,260l2.6,1.5l-4.6,2.7l-2.6-1.5L99.1,260L99.1,260z M106,260.5l2.6,1.5l-7.6,4.4l-2.6-1.5L106,260.5
				L106,260.5z M112.8,261.1l2.6,1.5l-10.6,6.1l-2.6-1.5L112.8,261.1L112.8,261.1z M99.1,258.9c-0.2,0-0.4,0-0.6,0.1l-4.6,2.7
				c-0.3,0.2-0.6,0.6-0.6,1s0.2,0.8,0.6,1l2.6,1.5c0.2,0.1,0.4,0.1,0.6,0.1c0.1,0,0.2,0,0.2,0c0.1,0.3,0.3,0.5,0.5,0.6l2.6,1.5
				c0.2,0.1,0.4,0.1,0.6,0.1c0.1,0,0.2,0,0.2,0c0.1,0.3,0.3,0.5,0.5,0.6l2.6,1.5c0.2,0.1,0.4,0.1,0.6,0.1s0.4,0,0.6-0.1l10.6-6.1
				c0.3-0.2,0.6-0.6,0.6-1s-0.2-0.8-0.6-1l-2.6-1.5c-0.2-0.1-0.4-0.1-0.6-0.1s-0.4,0-0.6,0.1l-2.7,1.5c-0.1-0.2-0.3-0.5-0.5-0.6
				l-2.6-1.5c-0.2-0.1-0.4-0.1-0.6-0.1s-0.4,0-0.6,0.1l-2.7,1.5c-0.1-0.2-0.3-0.5-0.5-0.6l-2.6-1.5
				C99.5,258.9,99.3,258.9,99.1,258.9L99.1,258.9L99.1,258.9z"/>
			<path class="st24" d="M131.7,273c1,0,2.1,0.2,2.9,0.7c1.1,0.6,1.4,1.5,1,2.4c0.4-0.1,0.8-0.1,1.2-0.1c1,0,2.1,0.2,2.9,0.7
				c1.6,0.9,1.6,2.4,0,3.3c-1.3,0.7-3.7,0.9-6,0.9c-3,0-5.8-0.3-5.8-0.3s-1.8-5.2,1-6.8C129.6,273.3,130.6,273.1,131.7,273
				L131.7,273L131.7,273z M131.7,271.9v1.1V271.9c-1.3,0-2.5,0.3-3.4,0.8c-3.7,2.1-1.6,7.9-1.5,8.2c0.1,0.4,0.5,0.7,0.9,0.7
				c0.1,0,2.9,0.4,6,0.4s5.3-0.4,6.6-1.1c1.1-0.6,1.7-1.6,1.7-2.6s-0.6-2-1.8-2.6c-0.9-0.5-2.1-0.8-3.4-0.8
				c-0.2-0.8-0.7-1.5-1.7-2.1C134.2,272.2,132.9,271.9,131.7,271.9L131.7,271.9L131.7,271.9z"/>
		</g>
		<g>
			<path class="st32" d="M138.3,127.7c-18.2-10.5-18.3-27.5-0.2-37.9s47.5-10.4,65.7,0.1s18.2,27.5,0.2,37.9
				C185.9,138.3,156.5,138.2,138.3,127.7z M201.6,91.2c-16.9-9.8-44.4-9.8-61.3-0.1c-16.8,9.7-16.8,25.6,0.2,35.4s44.4,9.8,61.3,0.1
				S218.6,101,201.6,91.2z"/>
			<path class="st33" d="M129.1,133.1c-23.3-13.4-23.4-35.2-0.3-48.6c23.1-13.4,60.9-13.3,84.2,0.2s23.4,35.2,0.3,48.6
				S152.4,146.5,129.1,133.1z M209.7,86.5c-21.5-12.4-56.3-12.5-77.6-0.1s-21.2,32.4,0.2,44.8s56.3,12.4,77.6,0.1
				S231.2,98.9,209.7,86.5z"/>
			<path class="st34" d="M119.2,138.7c-28.8-16.6-28.9-43.5-0.3-60s75.2-16.4,104,0.2c28.8,16.6,28.9,43.5,0.3,60
				C194.6,155.4,148,155.3,119.2,138.7L119.2,138.7z M218.5,81.4c-26.3-15.2-69-15.3-95.2-0.2c-26.2,15.1-26,39.8,0.3,54.9
				c26.3,15.2,69,15.3,95.2,0.2S244.8,96.6,218.5,81.4z"/>
		</g>
		
			<radialGradient id="SVGID_00000161607979115275032510000012028900750314952348_" cx="166.68" cy="340.37" r="16.03" gradientTransform="matrix(1 0 0 -1 0 579.89)" gradientUnits="userSpaceOnUse">
			<stop  offset="0.1" style="stop-color:#DC3DAA"/>
			<stop  offset="0.11" style="stop-color:#BB3198"/>
			<stop  offset="0.15" style="stop-color:#5E0F66"/>
			<stop  offset="0.18" style="stop-color:#500C57"/>
			<stop  offset="0.24" style="stop-color:#37083C"/>
			<stop  offset="0.31" style="stop-color:#230526"/>
			<stop  offset="0.4" style="stop-color:#130314"/>
			<stop  offset="0.5" style="stop-color:#080108"/>
			<stop  offset="0.64" style="stop-color:#010001"/>
			<stop  offset="1" style="stop-color:#000000"/>
		</radialGradient>
		<circle style="fill:url(#SVGID_00000161607979115275032510000012028900750314952348_);" cx="166.7" cy="239.5" r="16"/>
		<g class="st36">
			<path class="st24" d="M166.7,337.3c-0.4,0-0.8-0.4-0.8-0.8v-1.9c0-0.4,0.4-0.8,0.8-0.8s0.8,0.4,0.8,0.8v1.9
				C167.5,336.9,167.1,337.3,166.7,337.3z M166.7,332.2c-0.4,0-0.8-0.4-0.8-0.8v-3.2c0-0.4,0.4-0.8,0.8-0.8s0.8,0.4,0.8,0.8v3.2
				C167.5,331.9,167.1,332.2,166.7,332.2z M166.7,325.8c-0.4,0-0.8-0.4-0.8-0.8v-3.2c0-0.4,0.4-0.8,0.8-0.8s0.8,0.4,0.8,0.8v3.2
				C167.5,325.5,167.1,325.8,166.7,325.8z M166.7,319.4c-0.4,0-0.8-0.4-0.8-0.8v-3.2c0-0.4,0.4-0.8,0.8-0.8s0.8,0.4,0.8,0.8v3.2
				C167.5,319,167.1,319.4,166.7,319.4z M166.7,313c-0.4,0-0.8-0.4-0.8-0.8V309c0-0.4,0.4-0.8,0.8-0.8s0.8,0.4,0.8,0.8v3.2
				C167.5,312.6,167.1,313,166.7,313z M166.7,306.6c-0.4,0-0.8-0.4-0.8-0.8v-3.2c0-0.4,0.4-0.8,0.8-0.8s0.8,0.4,0.8,0.8v3.2
				C167.5,306.2,167.1,306.6,166.7,306.6z M166.7,300.2c-0.4,0-0.8-0.4-0.8-0.8v-3.2c0-0.4,0.4-0.8,0.8-0.8s0.8,0.4,0.8,0.8v3.2
				C167.5,299.8,167.1,300.2,166.7,300.2z M166.7,293.8c-0.4,0-0.8-0.4-0.8-0.8v-3.2c0-0.4,0.4-0.8,0.8-0.8s0.8,0.4,0.8,0.8v3.2
				C167.5,293.4,167.1,293.8,166.7,293.8z M166.7,287.3c-0.4,0-0.8-0.4-0.8-0.8v-3.2c0-0.4,0.4-0.8,0.8-0.8s0.8,0.4,0.8,0.8v3.2
				C167.5,287,167.1,287.3,166.7,287.3z M166.7,280.9c-0.4,0-0.8-0.4-0.8-0.8v-3.2c0-0.4,0.4-0.8,0.8-0.8s0.8,0.4,0.8,0.8v3.2
				C167.5,280.6,167.1,280.9,166.7,280.9z M166.7,274.5c-0.4,0-0.8-0.4-0.8-0.8v-3.2c0-0.4,0.4-0.8,0.8-0.8s0.8,0.4,0.8,0.8v3.2
				C167.5,274.2,167.1,274.5,166.7,274.5z M166.7,268.1c-0.4,0-0.8-0.4-0.8-0.8v-3.2c0-0.4,0.4-0.8,0.8-0.8s0.8,0.4,0.8,0.8v3.2
				C167.5,267.8,167.1,268.1,166.7,268.1z M166.7,261.7c-0.4,0-0.8-0.4-0.8-0.8v-3.2c0-0.4,0.4-0.8,0.8-0.8s0.8,0.4,0.8,0.8v3.2
				C167.5,261.3,167.1,261.7,166.7,261.7z M166.7,255.3c-0.4,0-0.8-0.4-0.8-0.8v-3.2c0-0.4,0.4-0.8,0.8-0.8s0.8,0.4,0.8,0.8v3.2
				C167.5,254.9,167.1,255.3,166.7,255.3z"/>
		</g>
		
			<radialGradient id="SVGID_00000075156073799143803960000006321786499700976572_" cx="166.68" cy="243.4" r="16.03" gradientTransform="matrix(1 0 0 -1 0 579.89)" gradientUnits="userSpaceOnUse">
			<stop  offset="0.1" style="stop-color:#FFFFFF"/>
			<stop  offset="0.13" style="stop-color:#C677CD"/>
			<stop  offset="0.15" style="stop-color:#9F19AB"/>
			<stop  offset="0.17" style="stop-color:#93179E"/>
			<stop  offset="0.21" style="stop-color:#701179"/>
			<stop  offset="0.26" style="stop-color:#520C58"/>
			<stop  offset="0.32" style="stop-color:#38083C"/>
			<stop  offset="0.38" style="stop-color:#230526"/>
			<stop  offset="0.46" style="stop-color:#130314"/>
			<stop  offset="0.55" style="stop-color:#080108"/>
			<stop  offset="0.67" style="stop-color:#010001"/>
			<stop  offset="1" style="stop-color:#000000"/>
		</radialGradient>
		<circle style="fill:url(#SVGID_00000075156073799143803960000006321786499700976572_);" cx="166.7" cy="336.5" r="16"/>
		
			<linearGradient id="SVGID_00000048501887699634551150000001731306679899357364_" gradientUnits="userSpaceOnUse" x1="106.9368" y1="480.0853" x2="273.6368" y2="364.6753" gradientTransform="matrix(1 0 0 -1 0 579.89)">
			<stop  offset="0" style="stop-color:#972A74"/>
			<stop  offset="4.000000e-02" style="stop-color:#8A266A"/>
			<stop  offset="0.19" style="stop-color:#601A49"/>
			<stop  offset="0.35" style="stop-color:#3D112F"/>
			<stop  offset="0.51" style="stop-color:#22091A"/>
			<stop  offset="0.67" style="stop-color:#0F040B"/>
			<stop  offset="0.83" style="stop-color:#030102"/>
			<stop  offset="1" style="stop-color:#000000"/>
		</linearGradient>
		<path style="fill:url(#SVGID_00000048501887699634551150000001731306679899357364_);" d="M335.9,76.3c-7-4-18.4-4.1-25.3-0.1
			l-272,157c-7,4-6.9,10.6,0.1,14.6l115.5,66.7c7,4,18.4,4.1,25.3,0l272-157c7-4,6.9-10.6-0.1-14.6L335.9,76.3L335.9,76.3z"/>
	</g>
</g>
</svg>
