<svg width="115" height="22" viewBox="0 0 115 22" fill="none" xmlns="http://www.w3.org/2000/svg">
<path d="M3.744 9.096C3.088 9.096 2.496 9.012 1.968 8.844C1.448 8.668 0.996 8.412 0.612 8.076L0.9 7.464C1.316 7.792 1.74 8.036 2.172 8.196C2.612 8.348 3.136 8.424 3.744 8.424C4.504 8.424 5.072 8.276 5.448 7.98C5.832 7.684 6.024 7.296 6.024 6.816C6.024 6.416 5.884 6.104 5.604 5.88C5.332 5.656 4.88 5.48 4.248 5.352L3.036 5.1C2.284 4.948 1.72 4.692 1.344 4.332C0.976 3.972 0.792 3.492 0.792 2.892C0.792 2.404 0.916 1.976 1.164 1.608C1.42 1.24 1.772 0.955999 2.22 0.756C2.668 0.547999 3.184 0.443999 3.768 0.443999C4.936 0.443999 5.868 0.796 6.564 1.5L6.276 2.1C5.908 1.756 5.524 1.508 5.124 1.356C4.724 1.196 4.272 1.116 3.768 1.116C3.096 1.116 2.556 1.276 2.148 1.596C1.748 1.916 1.548 2.344 1.548 2.88C1.548 3.304 1.676 3.64 1.932 3.888C2.188 4.128 2.6 4.304 3.168 4.416L4.392 4.668C5.2 4.836 5.8 5.088 6.192 5.424C6.584 5.752 6.78 6.204 6.78 6.78C6.78 7.236 6.656 7.64 6.408 7.992C6.168 8.336 5.82 8.608 5.364 8.808C4.908 9 4.368 9.096 3.744 9.096ZM8.39306 9V0.539999H13.6011V1.176H9.11306V4.392H13.3491V5.028H9.11306V8.364H13.6011V9H8.39306ZM15.3071 9V0.539999H18.5351C19.3991 0.539999 20.0671 0.732 20.5391 1.116C21.0191 1.5 21.2591 2.048 21.2591 2.76C21.2591 3.224 21.1351 3.62 20.8871 3.948C20.6391 4.276 20.3031 4.516 19.8791 4.668C20.3671 4.788 20.7511 5.024 21.0311 5.376C21.3111 5.72 21.4511 6.16 21.4511 6.696C21.4511 7.448 21.2111 8.02 20.7311 8.412C20.2511 8.804 19.5711 9 18.6911 9H15.3071ZM16.0271 4.404H18.4511C19.1231 4.404 19.6351 4.268 19.9871 3.996C20.3391 3.716 20.5151 3.312 20.5151 2.784C20.5151 2.256 20.3391 1.856 19.9871 1.584C19.6351 1.304 19.1231 1.164 18.4511 1.164H16.0271V4.404ZM16.0271 8.376H18.6311C20.0151 8.376 20.7071 7.82 20.7071 6.708C20.7071 6.132 20.5351 5.708 20.1911 5.436C19.8471 5.164 19.3271 5.028 18.6311 5.028H16.0271V8.376ZM22.4724 9L26.1564 0.539999H26.8164L30.4884 9H29.7204L28.7484 6.744H24.2124L23.2524 9H22.4724ZM26.4684 1.452L24.4884 6.108H28.4724L26.4924 1.452H26.4684ZM34.4823 9.096C33.8263 9.096 33.2343 9.012 32.7063 8.844C32.1863 8.668 31.7343 8.412 31.3503 8.076L31.6383 7.464C32.0543 7.792 32.4783 8.036 32.9103 8.196C33.3503 8.348 33.8743 8.424 34.4823 8.424C35.2423 8.424 35.8103 8.276 36.1863 7.98C36.5703 7.684 36.7623 7.296 36.7623 6.816C36.7623 6.416 36.6223 6.104 36.3423 5.88C36.0703 5.656 35.6183 5.48 34.9863 5.352L33.7743 5.1C33.0223 4.948 32.4583 4.692 32.0823 4.332C31.7143 3.972 31.5303 3.492 31.5303 2.892C31.5303 2.404 31.6543 1.976 31.9023 1.608C32.1583 1.24 32.5103 0.955999 32.9583 0.756C33.4063 0.547999 33.9223 0.443999 34.5063 0.443999C35.6743 0.443999 36.6063 0.796 37.3023 1.5L37.0143 2.1C36.6463 1.756 36.2623 1.508 35.8623 1.356C35.4623 1.196 35.0103 1.116 34.5063 1.116C33.8343 1.116 33.2943 1.276 32.8863 1.596C32.4863 1.916 32.2863 2.344 32.2863 2.88C32.2863 3.304 32.4143 3.64 32.6703 3.888C32.9263 4.128 33.3383 4.304 33.9063 4.416L35.1303 4.668C35.9383 4.836 36.5383 5.088 36.9303 5.424C37.3223 5.752 37.5183 6.204 37.5183 6.78C37.5183 7.236 37.3943 7.64 37.1463 7.992C36.9063 8.336 36.5583 8.608 36.1023 8.808C35.6463 9 35.1063 9.096 34.4823 9.096ZM41.0436 9V1.2H37.8876V0.539999H44.9436V1.2H41.7876V9H41.0436ZM46.0806 9V0.539999H46.8126V9H46.0806ZM48.242 9L51.926 0.539999H52.586L56.258 9H55.49L54.518 6.744H49.982L49.022 9H48.242ZM52.238 1.452L50.258 6.108H54.242L52.262 1.452H52.238ZM57.6821 9V0.539999H58.2701L63.6221 7.752V0.539999H64.3061V9H63.7301L58.3661 1.776V9H57.6821ZM66.1821 9V0.539999H68.3901V4.164H68.4141L71.7021 0.539999H74.3181L70.5501 4.56L74.4501 9H71.8221L68.4141 5.184H68.3901V9H66.1821ZM78.4886 9.132C77.6326 9.132 76.8806 8.952 76.2326 8.592C75.5926 8.224 75.0926 7.712 74.7326 7.056C74.3726 6.4 74.1926 5.636 74.1926 4.764C74.1926 3.884 74.3686 3.12 74.7206 2.472C75.0806 1.816 75.5846 1.308 76.2326 0.948C76.8806 0.588 77.6326 0.408 78.4886 0.408C79.3446 0.408 80.0926 0.588 80.7326 0.948C81.3806 1.308 81.8846 1.816 82.2446 2.472C82.6046 3.12 82.7846 3.884 82.7846 4.764C82.7846 5.636 82.6046 6.4 82.2446 7.056C81.8846 7.712 81.3806 8.224 80.7326 8.592C80.0926 8.952 79.3446 9.132 78.4886 9.132ZM78.4886 7.284C79.1126 7.284 79.6006 7.064 79.9526 6.624C80.3126 6.176 80.4926 5.556 80.4926 4.764C80.4926 3.972 80.3166 3.356 79.9646 2.916C79.6126 2.476 79.1206 2.256 78.4886 2.256C77.8566 2.256 77.3646 2.476 77.0126 2.916C76.6606 3.356 76.4846 3.972 76.4846 4.764C76.4846 5.556 76.6606 6.176 77.0126 6.624C77.3646 7.064 77.8566 7.284 78.4886 7.284ZM83.6845 9V7.38L87.6565 2.352H83.6845V0.539999H90.2125V2.16L86.2405 7.188H90.3925V9H83.6845ZM91.4125 9V0.539999H93.6205V9H91.4125ZM99.4228 9.132C98.4868 9.132 97.6828 8.952 97.0108 8.592C96.3388 8.232 95.8228 7.724 95.4628 7.068C95.1108 6.412 94.9348 5.644 94.9348 4.764C94.9348 3.884 95.1108 3.12 95.4628 2.472C95.8228 1.816 96.3388 1.308 97.0108 0.948C97.6828 0.588 98.4868 0.408 99.4228 0.408C99.9828 0.408 100.523 0.496 101.043 0.672C101.563 0.84 101.983 1.064 102.303 1.344L101.643 3.084C101.291 2.828 100.939 2.64 100.587 2.52C100.235 2.392 99.8748 2.328 99.5068 2.328C98.7628 2.328 98.2028 2.54 97.8268 2.964C97.4508 3.38 97.2628 3.98 97.2628 4.764C97.2628 5.556 97.4508 6.164 97.8268 6.588C98.2028 7.004 98.7628 7.212 99.5068 7.212C99.8748 7.212 100.235 7.152 100.587 7.032C100.939 6.904 101.291 6.712 101.643 6.456L102.303 8.196C101.983 8.476 101.563 8.704 101.043 8.88C100.523 9.048 99.9828 9.132 99.4228 9.132ZM103.389 9V0.539999H105.597V4.164H105.621L108.909 0.539999H111.525L107.757 4.56L111.657 9H109.029L105.621 5.184H105.597V9H103.389ZM111.932 9V0.539999H114.14V9H111.932Z" fill="black"/>
<path d="M3.62 21.08C2.72 21.08 2.03667 20.84 1.57 20.36C1.10333 19.8733 0.87 19.17 0.87 18.25V13.95H1.48V18.2C1.48 19.7467 2.19333 20.52 3.62 20.52C5.04667 20.52 5.76 19.7467 5.76 18.2V13.95H6.37V18.25C6.37 19.17 6.13667 19.8733 5.67 20.36C5.20333 20.84 4.52 21.08 3.62 21.08ZM8.15633 21V13.95H8.76633V21H8.15633ZM10.0075 21.59L9.5075 21.44L12.0575 13.52L12.5675 13.67L10.0075 21.59ZM15.5634 21L13.1134 13.95H13.7534L15.8634 20.09L17.9934 13.95H18.5134L20.6434 20.13L22.7734 13.95H23.3934L20.9434 21H20.3634L18.2534 14.88L16.1234 21H15.5634ZM24.6505 21V13.95H28.9905V14.48H25.2505V17.16H28.7805V17.69H25.2505V20.47H28.9905V21H24.6505ZM30.4122 21V13.95H33.1022C33.8222 13.95 34.3789 14.11 34.7722 14.43C35.1722 14.75 35.3722 15.2067 35.3722 15.8C35.3722 16.1867 35.2689 16.5167 35.0622 16.79C34.8555 17.0633 34.5755 17.2633 34.2222 17.39C34.6289 17.49 34.9489 17.6867 35.1822 17.98C35.4155 18.2667 35.5322 18.6333 35.5322 19.08C35.5322 19.7067 35.3322 20.1833 34.9322 20.51C34.5322 20.8367 33.9655 21 33.2322 21H30.4122ZM31.0122 17.17H33.0322C33.5922 17.17 34.0189 17.0567 34.3122 16.83C34.6055 16.5967 34.7522 16.26 34.7522 15.82C34.7522 15.38 34.6055 15.0467 34.3122 14.82C34.0189 14.5867 33.5922 14.47 33.0322 14.47H31.0122V17.17ZM31.0122 20.48H33.1822C34.3355 20.48 34.9122 20.0167 34.9122 19.09C34.9122 18.61 34.7689 18.2567 34.4822 18.03C34.1955 17.8033 33.7622 17.69 33.1822 17.69H31.0122V20.48ZM39.6309 21V13.95H41.9009C43.0209 13.95 43.8843 14.25 44.4909 14.85C45.1043 15.45 45.4109 16.3233 45.4109 17.47C45.4109 18.6167 45.1043 19.4933 44.4909 20.1C43.8843 20.7 43.0209 21 41.9009 21H39.6309ZM40.2409 20.46H41.8509C43.7843 20.46 44.7509 19.4633 44.7509 17.47C44.7509 15.4833 43.7843 14.49 41.8509 14.49H40.2409V20.46ZM46.9649 21V13.95H51.3049V14.48H47.5649V17.16H51.0949V17.69H47.5649V20.47H51.3049V21H46.9649ZM54.829 21.08C54.2823 21.08 53.789 21.01 53.349 20.87C52.9157 20.7233 52.539 20.51 52.219 20.23L52.459 19.72C52.8057 19.9933 53.159 20.1967 53.519 20.33C53.8857 20.4567 54.3223 20.52 54.829 20.52C55.4623 20.52 55.9357 20.3967 56.249 20.15C56.569 19.9033 56.729 19.58 56.729 19.18C56.729 18.8467 56.6123 18.5867 56.379 18.4C56.1523 18.2133 55.7757 18.0667 55.249 17.96L54.239 17.75C53.6123 17.6233 53.1423 17.41 52.829 17.11C52.5223 16.81 52.369 16.41 52.369 15.91C52.369 15.5033 52.4723 15.1467 52.679 14.84C52.8923 14.5333 53.1857 14.2967 53.559 14.13C53.9323 13.9567 54.3623 13.87 54.849 13.87C55.8223 13.87 56.599 14.1633 57.179 14.75L56.939 15.25C56.6323 14.9633 56.3123 14.7567 55.979 14.63C55.6457 14.4967 55.269 14.43 54.849 14.43C54.289 14.43 53.839 14.5633 53.499 14.83C53.1657 15.0967 52.999 15.4533 52.999 15.9C52.999 16.2533 53.1057 16.5333 53.319 16.74C53.5323 16.94 53.8757 17.0867 54.349 17.18L55.369 17.39C56.0423 17.53 56.5423 17.74 56.869 18.02C57.1957 18.2933 57.359 18.67 57.359 19.15C57.359 19.53 57.2557 19.8667 57.049 20.16C56.849 20.4467 56.559 20.6733 56.179 20.84C55.799 21 55.349 21.08 54.829 21.08ZM58.7032 21V13.95H59.3132V21H58.7032ZM64.2844 21.08C63.171 21.08 62.3244 20.7633 61.7444 20.13C61.1644 19.4967 60.8744 18.61 60.8744 17.47C60.8744 16.73 61.001 16.09 61.2544 15.55C61.5144 15.01 61.8844 14.5967 62.3644 14.31C62.851 14.0167 63.4377 13.87 64.1244 13.87C65.1444 13.87 65.9577 14.1733 66.5644 14.78L66.2944 15.28C65.9677 14.98 65.631 14.7667 65.2844 14.64C64.9377 14.5067 64.5477 14.44 64.1144 14.44C63.281 14.44 62.641 14.7067 62.1944 15.24C61.7477 15.7667 61.5244 16.51 61.5244 17.47C61.5244 18.4633 61.7544 19.22 62.2144 19.74C62.681 20.26 63.3744 20.52 64.2944 20.52C64.921 20.52 65.5044 20.4133 66.0444 20.2V17.91H64.1744V17.39H66.5944V20.6C66.421 20.6933 66.2044 20.7767 65.9444 20.85C65.691 20.9233 65.4177 20.98 65.1244 21.02C64.8377 21.06 64.5577 21.08 64.2844 21.08ZM68.3712 21V13.95H68.8612L73.3212 19.96V13.95H73.8912V21H73.4112L68.9412 14.98V21H68.3712ZM75.7345 21V13.95H80.0745V14.48H76.3345V17.16H79.8645V17.69H76.3345V20.47H80.0745V21H75.7345ZM81.4962 21V13.95H84.1562C84.9095 13.95 85.4828 14.1233 85.8762 14.47C86.2762 14.8167 86.4762 15.31 86.4762 15.95C86.4762 16.4767 86.3328 16.9033 86.0462 17.23C85.7595 17.5567 85.3528 17.7667 84.8262 17.86C85.1128 17.9667 85.3662 18.2267 85.5862 18.64L86.8662 21H86.1962L84.9762 18.74C84.8028 18.4267 84.6095 18.2167 84.3962 18.11C84.1828 18.0033 83.8962 17.95 83.5362 17.95H82.1062V21H81.4962ZM82.1062 17.43H84.0762C85.2628 17.43 85.8562 16.9367 85.8562 15.95C85.8562 14.97 85.2628 14.48 84.0762 14.48H82.1062V17.43Z" fill="#832E88"/>
</svg>
