<svg width="58" height="58" viewBox="0 0 58 58" fill="none" xmlns="http://www.w3.org/2000/svg">
<path d="M56.4682 14.2573C56.3854 13.8082 56.2091 13.3815 55.9506 13.005C55.6922 12.6284 55.3575 12.3104 54.9682 12.0716L46.3968 20.6431C45.997 21.0578 45.5177 21.3878 44.9875 21.6131C44.4573 21.8385 43.8872 21.9546 43.3111 21.9546C42.735 21.9546 42.1648 21.8385 41.6346 21.6131C41.1045 21.3878 40.6252 21.0578 40.2254 20.6431L36.9682 17.7288C36.183 16.9276 35.7431 15.8506 35.7431 14.7288C35.7431 13.607 36.183 12.5299 36.9682 11.7288L45.5397 3.15734C45.3527 2.71821 45.0716 2.32553 44.7161 2.00708C44.3606 1.68862 43.9395 1.45218 43.4825 1.31448C40.4918 0.718082 37.3938 0.973374 34.5411 2.05129C31.6884 3.12922 29.1956 4.98645 27.3466 7.41156C25.4977 9.83667 24.3667 12.7322 24.0826 15.7685C23.8165 18.6128 24.3035 21.4735 25.4898 24.0648L2.48964 47.0649C0.79177 48.7628 0.819927 51.5241 2.55207 53.187L4.95539 55.4942C6.63174 57.1036 9.28524 57.0837 10.9373 55.4495L34.2016 32.4372C36.7178 33.4763 39.4587 33.8716 42.1747 33.5804C45.1779 33.2585 48.033 32.1099 50.4224 30.2623C52.8118 28.4147 54.6419 25.9406 55.7093 23.115C56.7766 20.2895 57.0393 17.2233 56.4682 14.2573Z" stroke="white" stroke-opacity="0.8" stroke-linecap="round" stroke-linejoin="round"/>
</svg>
